ply
format ascii 1.0
element vertex 961
property float x
property float y
property float z
end_header
6.84251 1.85746e-12 -44.18
6.84251 1.85746e-12 -44.1033
6.84251 1.85746e-12 -44.0267
6.84251 1.85746e-12 -43.95
6.84251 1.85746e-12 -43.8733
6.84251 1.85746e-12 -43.7967
6.84251 1.85746e-12 -43.72
6.84251 1.85746e-12 -43.6433
6.84251 1.85746e-12 -43.5667
6.84251 1.85746e-12 -43.49
6.84251 1.85746e-12 -43.4133
6.84251 1.85746e-12 -43.3367
6.84251 1.85746e-12 -43.26
6.84251 1.85746e-12 -43.1833
6.84251 1.85746e-12 -43.1067
6.84251 1.85746e-12 -43.03
6.84251 1.85746e-12 -42.9533
6.84251 1.85746e-12 -42.8767
6.84251 1.85746e-12 -42.8
6.84251 1.85746e-12 -42.7233
6.84251 1.85746e-12 -42.6467
6.84251 1.85746e-12 -42.57
6.84251 1.85746e-12 -42.4933
6.84251 1.85746e-12 -42.4167
6.84251 1.85746e-12 -42.34
6.84251 1.85746e-12 -42.2633
6.84251 1.85746e-12 -42.1867
6.84251 1.85746e-12 -42.11
6.84251 1.85746e-12 -42.0333
6.84251 1.85746e-12 -41.9567
6.84251 1.85746e-12 -41.88
6.91151 -0.656478 -44.18
6.91151 -0.656478 -44.1033
6.91151 -0.656478 -44.0267
6.91151 -0.656478 -43.95
6.91151 -0.656478 -43.8733
6.91151 -0.656478 -43.7967
6.91151 -0.656478 -43.72
6.91151 -0.656478 -43.6433
6.91151 -0.656478 -43.5667
6.91151 -0.656478 -43.49
6.91151 -0.656478 -43.4133
6.91151 -0.656478 -43.3367
6.91151 -0.656478 -43.26
6.91151 -0.656478 -43.1833
6.91151 -0.656478 -43.1067
6.91151 -0.656478 -43.03
6.91151 -0.656478 -42.9533
6.91151 -0.656478 -42.8767
6.91151 -0.656478 -42.8
6.91151 -0.656478 -42.7233
6.91151 -0.656478 -42.6467
6.91151 -0.656478 -42.57
6.91151 -0.656478 -42.4933
6.91151 -0.656478 -42.4167
6.91151 -0.656478 -42.34
6.91151 -0.656478 -42.2633
6.91151 -0.656478 -42.1867
6.91151 -0.656478 -42.11
6.91151 -0.656478 -42.0333
6.91151 -0.656478 -41.9567
6.91151 -0.656478 -41.88
7.11549 -1.28427 -44.18
7.11549 -1.28427 -44.1033
7.11549 -1.28427 -44.0267
7.11549 -1.28427 -43.95
7.11549 -1.28427 -43.8733
7.11549 -1.28427 -43.7967
7.11549 -1.28427 -43.72
7.11549 -1.28427 -43.6433
7.11549 -1.28427 -43.5667
7.11549 -1.28427 -43.49
7.11549 -1.28427 -43.4133
7.11549 -1.28427 -43.3367
7.11549 -1.28427 -43.26
7.11549 -1.28427 -43.1833
7.11549 -1.28427 -43.1067
7.11549 -1.28427 -43.03
7.11549 -1.28427 -42.9533
7.11549 -1.28427 -42.8767
7.11549 -1.28427 -42.8
7.11549 -1.28427 -42.7233
7.11549 -1.28427 -42.6467
7.11549 -1.28427 -42.57
7.11549 -1.28427 -42.4933
7.11549 -1.28427 -42.4167
7.11549 -1.28427 -42.34
7.11549 -1.28427 -42.2633
7.11549 -1.28427 -42.1867
7.11549 -1.28427 -42.11
7.11549 -1.28427 -42.0333
7.11549 -1.28427 -41.9567
7.11549 -1.28427 -41.88
7.44554 -1.85592 -44.18
7.44554 -1.85592 -44.1033
7.44554 -1.85592 -44.0267
7.44554 -1.85592 -43.95
7.44554 -1.85592 -43.8733
7.44554 -1.85592 -43.7967
7.44554 -1.85592 -43.72
7.44554 -1.85592 -43.6433
7.44554 -1.85592 -43.5667
7.44554 -1.85592 -43.49
7.44554 -1.85592 -43.4133
7.44554 -1.85592 -43.3367
7.44554 -1.85592 -43.26
7.44554 -1.85592 -43.1833
7.44554 -1.85592 -43.1067
7.44554 -1.85592 -43.03
7.44554 -1.85592 -42.9533
7.44554 -1.85592 -42.8767
7.44554 -1.85592 -42.8
7.44554 -1.85592 -42.7233
7.44554 -1.85592 -42.6467
7.44554 -1.85592 -42.57
7.44554 -1.85592 -42.4933
7.44554 -1.85592 -42.4167
7.44554 -1.85592 -42.34
7.44554 -1.85592 -42.2633
7.44554 -1.85592 -42.1867
7.44554 -1.85592 -42.11
7.44554 -1.85592 -42.0333
7.44554 -1.85592 -41.9567
7.44554 -1.85592 -41.88
7.88723 -2.34647 -44.18
7.88723 -2.34647 -44.1033
7.88723 -2.34647 -44.0267
7.88723 -2.34647 -43.95
7.88723 -2.34647 -43.8733
7.88723 -2.34647 -43.7967
7.88723 -2.34647 -43.72
7.88723 -2.34647 -43.6433
7.88723 -2.34647 -43.5667
7.88723 -2.34647 -43.49
7.88723 -2.34647 -43.4133
7.88723 -2.34647 -43.3367
7.88723 -2.34647 -43.26
7.88723 -2.34647 -43.1833
7.88723 -2.34647 -43.1067
7.88723 -2.34647 -43.03
7.88723 -2.34647 -42.9533
7.88723 -2.34647 -42.8767
7.88723 -2.34647 -42.8
7.88723 -2.34647 -42.7233
7.88723 -2.34647 -42.6467
7.88723 -2.34647 -42.57
7.88723 -2.34647 -42.4933
7.88723 -2.34647 -42.4167
7.88723 -2.34647 -42.34
7.88723 -2.34647 -42.2633
7.88723 -2.34647 -42.1867
7.88723 -2.34647 -42.11
7.88723 -2.34647 -42.0333
7.88723 -2.34647 -41.9567
7.88723 -2.34647 -41.88
8.42126 -2.73446 -44.18
8.42126 -2.73446 -44.1033
8.42126 -2.73446 -44.0267
8.42126 -2.73446 -43.95
8.42126 -2.73446 -43.8733
8.42126 -2.73446 -43.7967
8.42126 -2.73446 -43.72
8.42126 -2.73446 -43.6433
8.42126 -2.73446 -43.5667
8.42126 -2.73446 -43.49
8.42126 -2.73446 -43.4133
8.42126 -2.73446 -43.3367
8.42126 -2.73446 -43.26
8.42126 -2.73446 -43.1833
8.42126 -2.73446 -43.1067
8.42126 -2.73446 -43.03
8.42126 -2.73446 -42.9533
8.42126 -2.73446 -42.8767
8.42126 -2.73446 -42.8
8.42126 -2.73446 -42.7233
8.42126 -2.73446 -42.6467
8.42126 -2.73446 -42.57
8.42126 -2.73446 -42.4933
8.42126 -2.73446 -42.4167
8.42126 -2.73446 -42.34
8.42126 -2.73446 -42.2633
8.42126 -2.73446 -42.1867
8.42126 -2.73446 -42.11
8.42126 -2.73446 -42.0333
8.42126 -2.73446 -41.9567
8.42126 -2.73446 -41.88
9.02428 -3.00295 -44.18
9.02428 -3.00295 -44.1033
9.02428 -3.00295 -44.0267
9.02428 -3.00295 -43.95
9.02428 -3.00295 -43.8733
9.02428 -3.00295 -43.7967
9.02428 -3.00295 -43.72
9.02428 -3.00295 -43.6433
9.02428 -3.00295 -43.5667
9.02428 -3.00295 -43.49
9.02428 -3.00295 -43.4133
9.02428 -3.00295 -43.3367
9.02428 -3.00295 -43.26
9.02428 -3.00295 -43.1833
9.02428 -3.00295 -43.1067
9.02428 -3.00295 -43.03
9.02428 -3.00295 -42.9533
9.02428 -3.00295 -42.8767
9.02428 -3.00295 -42.8
9.02428 -3.00295 -42.7233
9.02428 -3.00295 -42.6467
9.02428 -3.00295 -42.57
9.02428 -3.00295 -42.4933
9.02428 -3.00295 -42.4167
9.02428 -3.00295 -42.34
9.02428 -3.00295 -42.2633
9.02428 -3.00295 -42.1867
9.02428 -3.00295 -42.11
9.02428 -3.00295 -42.0333
9.02428 -3.00295 -41.9567
9.02428 -3.00295 -41.88
9.66995 -3.14019 -44.18
9.66995 -3.14019 -44.1033
9.66995 -3.14019 -44.0267
9.66995 -3.14019 -43.95
9.66995 -3.14019 -43.8733
9.66995 -3.14019 -43.7967
9.66995 -3.14019 -43.72
9.66995 -3.14019 -43.6433
9.66995 -3.14019 -43.5667
9.66995 -3.14019 -43.49
9.66995 -3.14019 -43.4133
9.66995 -3.14019 -43.3367
9.66995 -3.14019 -43.26
9.66995 -3.14019 -43.1833
9.66995 -3.14019 -43.1067
9.66995 -3.14019 -43.03
9.66995 -3.14019 -42.9533
9.66995 -3.14019 -42.8767
9.66995 -3.14019 -42.8
9.66995 -3.14019 -42.7233
9.66995 -3.14019 -42.6467
9.66995 -3.14019 -42.57
9.66995 -3.14019 -42.4933
9.66995 -3.14019 -42.4167
9.66995 -3.14019 -42.34
9.66995 -3.14019 -42.2633
9.66995 -3.14019 -42.1867
9.66995 -3.14019 -42.11
9.66995 -3.14019 -42.0333
9.66995 -3.14019 -41.9567
9.66995 -3.14019 -41.88
10.33 -3.14019 -44.18
10.33 -3.14019 -44.1033
10.33 -3.14019 -44.0267
10.33 -3.14019 -43.95
10.33 -3.14019 -43.8733
10.33 -3.14019 -43.7967
10.33 -3.14019 -43.72
10.33 -3.14019 -43.6433
10.33 -3.14019 -43.5667
10.33 -3.14019 -43.49
10.33 -3.14019 -43.4133
10.33 -3.14019 -43.3367
10.33 -3.14019 -43.26
10.33 -3.14019 -43.1833
10.33 -3.14019 -43.1067
10.33 -3.14019 -43.03
10.33 -3.14019 -42.9533
10.33 -3.14019 -42.8767
10.33 -3.14019 -42.8
10.33 -3.14019 -42.7233
10.33 -3.14019 -42.6467
10.33 -3.14019 -42.57
10.33 -3.14019 -42.4933
10.33 -3.14019 -42.4167
10.33 -3.14019 -42.34
10.33 -3.14019 -42.2633
10.33 -3.14019 -42.1867
10.33 -3.14019 -42.11
10.33 -3.14019 -42.0333
10.33 -3.14019 -41.9567
10.33 -3.14019 -41.88
10.9757 -3.00295 -44.18
10.9757 -3.00295 -44.1033
10.9757 -3.00295 -44.0267
10.9757 -3.00295 -43.95
10.9757 -3.00295 -43.8733
10.9757 -3.00295 -43.7967
10.9757 -3.00295 -43.72
10.9757 -3.00295 -43.6433
10.9757 -3.00295 -43.5667
10.9757 -3.00295 -43.49
10.9757 -3.00295 -43.4133
10.9757 -3.00295 -43.3367
10.9757 -3.00295 -43.26
10.9757 -3.00295 -43.1833
10.9757 -3.00295 -43.1067
10.9757 -3.00295 -43.03
10.9757 -3.00295 -42.9533
10.9757 -3.00295 -42.8767
10.9757 -3.00295 -42.8
10.9757 -3.00295 -42.7233
10.9757 -3.00295 -42.6467
10.9757 -3.00295 -42.57
10.9757 -3.00295 -42.4933
10.9757 -3.00295 -42.4167
10.9757 -3.00295 -42.34
10.9757 -3.00295 -42.2633
10.9757 -3.00295 -42.1867
10.9757 -3.00295 -42.11
10.9757 -3.00295 -42.0333
10.9757 -3.00295 -41.9567
10.9757 -3.00295 -41.88
11.5787 -2.73446 -44.18
11.5787 -2.73446 -44.1033
11.5787 -2.73446 -44.0267
11.5787 -2.73446 -43.95
11.5787 -2.73446 -43.8733
11.5787 -2.73446 -43.7967
11.5787 -2.73446 -43.72
11.5787 -2.73446 -43.6433
11.5787 -2.73446 -43.5667
11.5787 -2.73446 -43.49
11.5787 -2.73446 -43.4133
11.5787 -2.73446 -43.3367
11.5787 -2.73446 -43.26
11.5787 -2.73446 -43.1833
11.5787 -2.73446 -43.1067
11.5787 -2.73446 -43.03
11.5787 -2.73446 -42.9533
11.5787 -2.73446 -42.8767
11.5787 -2.73446 -42.8
11.5787 -2.73446 -42.7233
11.5787 -2.73446 -42.6467
11.5787 -2.73446 -42.57
11.5787 -2.73446 -42.4933
11.5787 -2.73446 -42.4167
11.5787 -2.73446 -42.34
11.5787 -2.73446 -42.2633
11.5787 -2.73446 -42.1867
11.5787 -2.73446 -42.11
11.5787 -2.73446 -42.0333
11.5787 -2.73446 -41.9567
11.5787 -2.73446 -41.88
12.1128 -2.34647 -44.18
12.1128 -2.34647 -44.1033
12.1128 -2.34647 -44.0267
12.1128 -2.34647 -43.95
12.1128 -2.34647 -43.8733
12.1128 -2.34647 -43.7967
12.1128 -2.34647 -43.72
12.1128 -2.34647 -43.6433
12.1128 -2.34647 -43.5667
12.1128 -2.34647 -43.49
12.1128 -2.34647 -43.4133
12.1128 -2.34647 -43.3367
12.1128 -2.34647 -43.26
12.1128 -2.34647 -43.1833
12.1128 -2.34647 -43.1067
12.1128 -2.34647 -43.03
12.1128 -2.34647 -42.9533
12.1128 -2.34647 -42.8767
12.1128 -2.34647 -42.8
12.1128 -2.34647 -42.7233
12.1128 -2.34647 -42.6467
12.1128 -2.34647 -42.57
12.1128 -2.34647 -42.4933
12.1128 -2.34647 -42.4167
12.1128 -2.34647 -42.34
12.1128 -2.34647 -42.2633
12.1128 -2.34647 -42.1867
12.1128 -2.34647 -42.11
12.1128 -2.34647 -42.0333
12.1128 -2.34647 -41.9567
12.1128 -2.34647 -41.88
12.5545 -1.85592 -44.18
12.5545 -1.85592 -44.1033
12.5545 -1.85592 -44.0267
12.5545 -1.85592 -43.95
12.5545 -1.85592 -43.8733
12.5545 -1.85592 -43.7967
12.5545 -1.85592 -43.72
12.5545 -1.85592 -43.6433
12.5545 -1.85592 -43.5667
12.5545 -1.85592 -43.49
12.5545 -1.85592 -43.4133
12.5545 -1.85592 -43.3367
12.5545 -1.85592 -43.26
12.5545 -1.85592 -43.1833
12.5545 -1.85592 -43.1067
12.5545 -1.85592 -43.03
12.5545 -1.85592 -42.9533
12.5545 -1.85592 -42.8767
12.5545 -1.85592 -42.8
12.5545 -1.85592 -42.7233
12.5545 -1.85592 -42.6467
12.5545 -1.85592 -42.57
12.5545 -1.85592 -42.4933
12.5545 -1.85592 -42.4167
12.5545 -1.85592 -42.34
12.5545 -1.85592 -42.2633
12.5545 -1.85592 -42.1867
12.5545 -1.85592 -42.11
12.5545 -1.85592 -42.0333
12.5545 -1.85592 -41.9567
12.5545 -1.85592 -41.88
12.8845 -1.28427 -44.18
12.8845 -1.28427 -44.1033
12.8845 -1.28427 -44.0267
12.8845 -1.28427 -43.95
12.8845 -1.28427 -43.8733
12.8845 -1.28427 -43.7967
12.8845 -1.28427 -43.72
12.8845 -1.28427 -43.6433
12.8845 -1.28427 -43.5667
12.8845 -1.28427 -43.49
12.8845 -1.28427 -43.4133
12.8845 -1.28427 -43.3367
12.8845 -1.28427 -43.26
12.8845 -1.28427 -43.1833
12.8845 -1.28427 -43.1067
12.8845 -1.28427 -43.03
12.8845 -1.28427 -42.9533
12.8845 -1.28427 -42.8767
12.8845 -1.28427 -42.8
12.8845 -1.28427 -42.7233
12.8845 -1.28427 -42.6467
12.8845 -1.28427 -42.57
12.8845 -1.28427 -42.4933
12.8845 -1.28427 -42.4167
12.8845 -1.28427 -42.34
12.8845 -1.28427 -42.2633
12.8845 -1.28427 -42.1867
12.8845 -1.28427 -42.11
12.8845 -1.28427 -42.0333
12.8845 -1.28427 -41.9567
12.8845 -1.28427 -41.88
13.0885 -0.656478 -44.18
13.0885 -0.656478 -44.1033
13.0885 -0.656478 -44.0267
13.0885 -0.656478 -43.95
13.0885 -0.656478 -43.8733
13.0885 -0.656478 -43.7967
13.0885 -0.656478 -43.72
13.0885 -0.656478 -43.6433
13.0885 -0.656478 -43.5667
13.0885 -0.656478 -43.49
13.0885 -0.656478 -43.4133
13.0885 -0.656478 -43.3367
13.0885 -0.656478 -43.26
13.0885 -0.656478 -43.1833
13.0885 -0.656478 -43.1067
13.0885 -0.656478 -43.03
13.0885 -0.656478 -42.9533
13.0885 -0.656478 -42.8767
13.0885 -0.656478 -42.8
13.0885 -0.656478 -42.7233
13.0885 -0.656478 -42.6467
13.0885 -0.656478 -42.57
13.0885 -0.656478 -42.4933
13.0885 -0.656478 -42.4167
13.0885 -0.656478 -42.34
13.0885 -0.656478 -42.2633
13.0885 -0.656478 -42.1867
13.0885 -0.656478 -42.11
13.0885 -0.656478 -42.0333
13.0885 -0.656478 -41.9567
13.0885 -0.656478 -41.88
13.1575 1.8563e-12 -44.18
13.1575 1.8563e-12 -44.1033
13.1575 1.8563e-12 -44.0267
13.1575 1.8563e-12 -43.95
13.1575 1.8563e-12 -43.8733
13.1575 1.8563e-12 -43.7967
13.1575 1.8563e-12 -43.72
13.1575 1.8563e-12 -43.6433
13.1575 1.8563e-12 -43.5667
13.1575 1.8563e-12 -43.49
13.1575 1.8563e-12 -43.4133
13.1575 1.8563e-12 -43.3367
13.1575 1.8563e-12 -43.26
13.1575 1.8563e-12 -43.1833
13.1575 1.8563e-12 -43.1067
13.1575 1.8563e-12 -43.03
13.1575 1.8563e-12 -42.9533
13.1575 1.8563e-12 -42.8767
13.1575 1.8563e-12 -42.8
13.1575 1.8563e-12 -42.7233
13.1575 1.8563e-12 -42.6467
13.1575 1.8563e-12 -42.57
13.1575 1.8563e-12 -42.4933
13.1575 1.8563e-12 -42.4167
13.1575 1.8563e-12 -42.34
13.1575 1.8563e-12 -42.2633
13.1575 1.8563e-12 -42.1867
13.1575 1.8563e-12 -42.11
13.1575 1.8563e-12 -42.0333
13.1575 1.8563e-12 -41.9567
13.1575 1.8563e-12 -41.88
13.0885 0.656478 -44.18
13.0885 0.656478 -44.1033
13.0885 0.656478 -44.0267
13.0885 0.656478 -43.95
13.0885 0.656478 -43.8733
13.0885 0.656478 -43.7967
13.0885 0.656478 -43.72
13.0885 0.656478 -43.6433
13.0885 0.656478 -43.5667
13.0885 0.656478 -43.49
13.0885 0.656478 -43.4133
13.0885 0.656478 -43.3367
13.0885 0.656478 -43.26
13.0885 0.656478 -43.1833
13.0885 0.656478 -43.1067
13.0885 0.656478 -43.03
13.0885 0.656478 -42.9533
13.0885 0.656478 -42.8767
13.0885 0.656478 -42.8
13.0885 0.656478 -42.7233
13.0885 0.656478 -42.6467
13.0885 0.656478 -42.57
13.0885 0.656478 -42.4933
13.0885 0.656478 -42.4167
13.0885 0.656478 -42.34
13.0885 0.656478 -42.2633
13.0885 0.656478 -42.1867
13.0885 0.656478 -42.11
13.0885 0.656478 -42.0333
13.0885 0.656478 -41.9567
13.0885 0.656478 -41.88
12.8845 1.28427 -44.18
12.8845 1.28427 -44.1033
12.8845 1.28427 -44.0267
12.8845 1.28427 -43.95
12.8845 1.28427 -43.8733
12.8845 1.28427 -43.7967
12.8845 1.28427 -43.72
12.8845 1.28427 -43.6433
12.8845 1.28427 -43.5667
12.8845 1.28427 -43.49
12.8845 1.28427 -43.4133
12.8845 1.28427 -43.3367
12.8845 1.28427 -43.26
12.8845 1.28427 -43.1833
12.8845 1.28427 -43.1067
12.8845 1.28427 -43.03
12.8845 1.28427 -42.9533
12.8845 1.28427 -42.8767
12.8845 1.28427 -42.8
12.8845 1.28427 -42.7233
12.8845 1.28427 -42.6467
12.8845 1.28427 -42.57
12.8845 1.28427 -42.4933
12.8845 1.28427 -42.4167
12.8845 1.28427 -42.34
12.8845 1.28427 -42.2633
12.8845 1.28427 -42.1867
12.8845 1.28427 -42.11
12.8845 1.28427 -42.0333
12.8845 1.28427 -41.9567
12.8845 1.28427 -41.88
12.5545 1.85592 -44.18
12.5545 1.85592 -44.1033
12.5545 1.85592 -44.0267
12.5545 1.85592 -43.95
12.5545 1.85592 -43.8733
12.5545 1.85592 -43.7967
12.5545 1.85592 -43.72
12.5545 1.85592 -43.6433
12.5545 1.85592 -43.5667
12.5545 1.85592 -43.49
12.5545 1.85592 -43.4133
12.5545 1.85592 -43.3367
12.5545 1.85592 -43.26
12.5545 1.85592 -43.1833
12.5545 1.85592 -43.1067
12.5545 1.85592 -43.03
12.5545 1.85592 -42.9533
12.5545 1.85592 -42.8767
12.5545 1.85592 -42.8
12.5545 1.85592 -42.7233
12.5545 1.85592 -42.6467
12.5545 1.85592 -42.57
12.5545 1.85592 -42.4933
12.5545 1.85592 -42.4167
12.5545 1.85592 -42.34
12.5545 1.85592 -42.2633
12.5545 1.85592 -42.1867
12.5545 1.85592 -42.11
12.5545 1.85592 -42.0333
12.5545 1.85592 -41.9567
12.5545 1.85592 -41.88
12.1128 2.34647 -44.18
12.1128 2.34647 -44.1033
12.1128 2.34647 -44.0267
12.1128 2.34647 -43.95
12.1128 2.34647 -43.8733
12.1128 2.34647 -43.7967
12.1128 2.34647 -43.72
12.1128 2.34647 -43.6433
12.1128 2.34647 -43.5667
12.1128 2.34647 -43.49
12.1128 2.34647 -43.4133
12.1128 2.34647 -43.3367
12.1128 2.34647 -43.26
12.1128 2.34647 -43.1833
12.1128 2.34647 -43.1067
12.1128 2.34647 -43.03
12.1128 2.34647 -42.9533
12.1128 2.34647 -42.8767
12.1128 2.34647 -42.8
12.1128 2.34647 -42.7233
12.1128 2.34647 -42.6467
12.1128 2.34647 -42.57
12.1128 2.34647 -42.4933
12.1128 2.34647 -42.4167
12.1128 2.34647 -42.34
12.1128 2.34647 -42.2633
12.1128 2.34647 -42.1867
12.1128 2.34647 -42.11
12.1128 2.34647 -42.0333
12.1128 2.34647 -41.9567
12.1128 2.34647 -41.88
11.5787 2.73446 -44.18
11.5787 2.73446 -44.1033
11.5787 2.73446 -44.0267
11.5787 2.73446 -43.95
11.5787 2.73446 -43.8733
11.5787 2.73446 -43.7967
11.5787 2.73446 -43.72
11.5787 2.73446 -43.6433
11.5787 2.73446 -43.5667
11.5787 2.73446 -43.49
11.5787 2.73446 -43.4133
11.5787 2.73446 -43.3367
11.5787 2.73446 -43.26
11.5787 2.73446 -43.1833
11.5787 2.73446 -43.1067
11.5787 2.73446 -43.03
11.5787 2.73446 -42.9533
11.5787 2.73446 -42.8767
11.5787 2.73446 -42.8
11.5787 2.73446 -42.7233
11.5787 2.73446 -42.6467
11.5787 2.73446 -42.57
11.5787 2.73446 -42.4933
11.5787 2.73446 -42.4167
11.5787 2.73446 -42.34
11.5787 2.73446 -42.2633
11.5787 2.73446 -42.1867
11.5787 2.73446 -42.11
11.5787 2.73446 -42.0333
11.5787 2.73446 -41.9567
11.5787 2.73446 -41.88
10.9757 3.00295 -44.18
10.9757 3.00295 -44.1033
10.9757 3.00295 -44.0267
10.9757 3.00295 -43.95
10.9757 3.00295 -43.8733
10.9757 3.00295 -43.7967
10.9757 3.00295 -43.72
10.9757 3.00295 -43.6433
10.9757 3.00295 -43.5667
10.9757 3.00295 -43.49
10.9757 3.00295 -43.4133
10.9757 3.00295 -43.3367
10.9757 3.00295 -43.26
10.9757 3.00295 -43.1833
10.9757 3.00295 -43.1067
10.9757 3.00295 -43.03
10.9757 3.00295 -42.9533
10.9757 3.00295 -42.8767
10.9757 3.00295 -42.8
10.9757 3.00295 -42.7233
10.9757 3.00295 -42.6467
10.9757 3.00295 -42.57
10.9757 3.00295 -42.4933
10.9757 3.00295 -42.4167
10.9757 3.00295 -42.34
10.9757 3.00295 -42.2633
10.9757 3.00295 -42.1867
10.9757 3.00295 -42.11
10.9757 3.00295 -42.0333
10.9757 3.00295 -41.9567
10.9757 3.00295 -41.88
10.33 3.14019 -44.18
10.33 3.14019 -44.1033
10.33 3.14019 -44.0267
10.33 3.14019 -43.95
10.33 3.14019 -43.8733
10.33 3.14019 -43.7967
10.33 3.14019 -43.72
10.33 3.14019 -43.6433
10.33 3.14019 -43.5667
10.33 3.14019 -43.49
10.33 3.14019 -43.4133
10.33 3.14019 -43.3367
10.33 3.14019 -43.26
10.33 3.14019 -43.1833
10.33 3.14019 -43.1067
10.33 3.14019 -43.03
10.33 3.14019 -42.9533
10.33 3.14019 -42.8767
10.33 3.14019 -42.8
10.33 3.14019 -42.7233
10.33 3.14019 -42.6467
10.33 3.14019 -42.57
10.33 3.14019 -42.4933
10.33 3.14019 -42.4167
10.33 3.14019 -42.34
10.33 3.14019 -42.2633
10.33 3.14019 -42.1867
10.33 3.14019 -42.11
10.33 3.14019 -42.0333
10.33 3.14019 -41.9567
10.33 3.14019 -41.88
9.66995 3.14019 -44.18
9.66995 3.14019 -44.1033
9.66995 3.14019 -44.0267
9.66995 3.14019 -43.95
9.66995 3.14019 -43.8733
9.66995 3.14019 -43.7967
9.66995 3.14019 -43.72
9.66995 3.14019 -43.6433
9.66995 3.14019 -43.5667
9.66995 3.14019 -43.49
9.66995 3.14019 -43.4133
9.66995 3.14019 -43.3367
9.66995 3.14019 -43.26
9.66995 3.14019 -43.1833
9.66995 3.14019 -43.1067
9.66995 3.14019 -43.03
9.66995 3.14019 -42.9533
9.66995 3.14019 -42.8767
9.66995 3.14019 -42.8
9.66995 3.14019 -42.7233
9.66995 3.14019 -42.6467
9.66995 3.14019 -42.57
9.66995 3.14019 -42.4933
9.66995 3.14019 -42.4167
9.66995 3.14019 -42.34
9.66995 3.14019 -42.2633
9.66995 3.14019 -42.1867
9.66995 3.14019 -42.11
9.66995 3.14019 -42.0333
9.66995 3.14019 -41.9567
9.66995 3.14019 -41.88
9.02428 3.00295 -44.18
9.02428 3.00295 -44.1033
9.02428 3.00295 -44.0267
9.02428 3.00295 -43.95
9.02428 3.00295 -43.8733
9.02428 3.00295 -43.7967
9.02428 3.00295 -43.72
9.02428 3.00295 -43.6433
9.02428 3.00295 -43.5667
9.02428 3.00295 -43.49
9.02428 3.00295 -43.4133
9.02428 3.00295 -43.3367
9.02428 3.00295 -43.26
9.02428 3.00295 -43.1833
9.02428 3.00295 -43.1067
9.02428 3.00295 -43.03
9.02428 3.00295 -42.9533
9.02428 3.00295 -42.8767
9.02428 3.00295 -42.8
9.02428 3.00295 -42.7233
9.02428 3.00295 -42.6467
9.02428 3.00295 -42.57
9.02428 3.00295 -42.4933
9.02428 3.00295 -42.4167
9.02428 3.00295 -42.34
9.02428 3.00295 -42.2633
9.02428 3.00295 -42.1867
9.02428 3.00295 -42.11
9.02428 3.00295 -42.0333
9.02428 3.00295 -41.9567
9.02428 3.00295 -41.88
8.42126 2.73446 -44.18
8.42126 2.73446 -44.1033
8.42126 2.73446 -44.0267
8.42126 2.73446 -43.95
8.42126 2.73446 -43.8733
8.42126 2.73446 -43.7967
8.42126 2.73446 -43.72
8.42126 2.73446 -43.6433
8.42126 2.73446 -43.5667
8.42126 2.73446 -43.49
8.42126 2.73446 -43.4133
8.42126 2.73446 -43.3367
8.42126 2.73446 -43.26
8.42126 2.73446 -43.1833
8.42126 2.73446 -43.1067
8.42126 2.73446 -43.03
8.42126 2.73446 -42.9533
8.42126 2.73446 -42.8767
8.42126 2.73446 -42.8
8.42126 2.73446 -42.7233
8.42126 2.73446 -42.6467
8.42126 2.73446 -42.57
8.42126 2.73446 -42.4933
8.42126 2.73446 -42.4167
8.42126 2.73446 -42.34
8.42126 2.73446 -42.2633
8.42126 2.73446 -42.1867
8.42126 2.73446 -42.11
8.42126 2.73446 -42.0333
8.42126 2.73446 -41.9567
8.42126 2.73446 -41.88
7.88723 2.34647 -44.18
7.88723 2.34647 -44.1033
7.88723 2.34647 -44.0267
7.88723 2.34647 -43.95
7.88723 2.34647 -43.8733
7.88723 2.34647 -43.7967
7.88723 2.34647 -43.72
7.88723 2.34647 -43.6433
7.88723 2.34647 -43.5667
7.88723 2.34647 -43.49
7.88723 2.34647 -43.4133
7.88723 2.34647 -43.3367
7.88723 2.34647 -43.26
7.88723 2.34647 -43.1833
7.88723 2.34647 -43.1067
7.88723 2.34647 -43.03
7.88723 2.34647 -42.9533
7.88723 2.34647 -42.8767
7.88723 2.34647 -42.8
7.88723 2.34647 -42.7233
7.88723 2.34647 -42.6467
7.88723 2.34647 -42.57
7.88723 2.34647 -42.4933
7.88723 2.34647 -42.4167
7.88723 2.34647 -42.34
7.88723 2.34647 -42.2633
7.88723 2.34647 -42.1867
7.88723 2.34647 -42.11
7.88723 2.34647 -42.0333
7.88723 2.34647 -41.9567
7.88723 2.34647 -41.88
7.44554 1.85592 -44.18
7.44554 1.85592 -44.1033
7.44554 1.85592 -44.0267
7.44554 1.85592 -43.95
7.44554 1.85592 -43.8733
7.44554 1.85592 -43.7967
7.44554 1.85592 -43.72
7.44554 1.85592 -43.6433
7.44554 1.85592 -43.5667
7.44554 1.85592 -43.49
7.44554 1.85592 -43.4133
7.44554 1.85592 -43.3367
7.44554 1.85592 -43.26
7.44554 1.85592 -43.1833
7.44554 1.85592 -43.1067
7.44554 1.85592 -43.03
7.44554 1.85592 -42.9533
7.44554 1.85592 -42.8767
7.44554 1.85592 -42.8
7.44554 1.85592 -42.7233
7.44554 1.85592 -42.6467
7.44554 1.85592 -42.57
7.44554 1.85592 -42.4933
7.44554 1.85592 -42.4167
7.44554 1.85592 -42.34
7.44554 1.85592 -42.2633
7.44554 1.85592 -42.1867
7.44554 1.85592 -42.11
7.44554 1.85592 -42.0333
7.44554 1.85592 -41.9567
7.44554 1.85592 -41.88
7.11549 1.28427 -44.18
7.11549 1.28427 -44.1033
7.11549 1.28427 -44.0267
7.11549 1.28427 -43.95
7.11549 1.28427 -43.8733
7.11549 1.28427 -43.7967
7.11549 1.28427 -43.72
7.11549 1.28427 -43.6433
7.11549 1.28427 -43.5667
7.11549 1.28427 -43.49
7.11549 1.28427 -43.4133
7.11549 1.28427 -43.3367
7.11549 1.28427 -43.26
7.11549 1.28427 -43.1833
7.11549 1.28427 -43.1067
7.11549 1.28427 -43.03
7.11549 1.28427 -42.9533
7.11549 1.28427 -42.8767
7.11549 1.28427 -42.8
7.11549 1.28427 -42.7233
7.11549 1.28427 -42.6467
7.11549 1.28427 -42.57
7.11549 1.28427 -42.4933
7.11549 1.28427 -42.4167
7.11549 1.28427 -42.34
7.11549 1.28427 -42.2633
7.11549 1.28427 -42.1867
7.11549 1.28427 -42.11
7.11549 1.28427 -42.0333
7.11549 1.28427 -41.9567
7.11549 1.28427 -41.88
6.91151 0.656478 -44.18
6.91151 0.656478 -44.1033
6.91151 0.656478 -44.0267
6.91151 0.656478 -43.95
6.91151 0.656478 -43.8733
6.91151 0.656478 -43.7967
6.91151 0.656478 -43.72
6.91151 0.656478 -43.6433
6.91151 0.656478 -43.5667
6.91151 0.656478 -43.49
6.91151 0.656478 -43.4133
6.91151 0.656478 -43.3367
6.91151 0.656478 -43.26
6.91151 0.656478 -43.1833
6.91151 0.656478 -43.1067
6.91151 0.656478 -43.03
6.91151 0.656478 -42.9533
6.91151 0.656478 -42.8767
6.91151 0.656478 -42.8
6.91151 0.656478 -42.7233
6.91151 0.656478 -42.6467
6.91151 0.656478 -42.57
6.91151 0.656478 -42.4933
6.91151 0.656478 -42.4167
6.91151 0.656478 -42.34
6.91151 0.656478 -42.2633
6.91151 0.656478 -42.1867
6.91151 0.656478 -42.11
6.91151 0.656478 -42.0333
6.91151 0.656478 -41.9567
6.91151 0.656478 -41.88
6.84251 1.85823e-12 -44.18
6.84251 1.85823e-12 -44.1033
6.84251 1.85823e-12 -44.0267
6.84251 1.85823e-12 -43.95
6.84251 1.85823e-12 -43.8733
6.84251 1.85823e-12 -43.7967
6.84251 1.85823e-12 -43.72
6.84251 1.85823e-12 -43.6433
6.84251 1.85823e-12 -43.5667
6.84251 1.85823e-12 -43.49
6.84251 1.85823e-12 -43.4133
6.84251 1.85823e-12 -43.3367
6.84251 1.85823e-12 -43.26
6.84251 1.85823e-12 -43.1833
6.84251 1.85823e-12 -43.1067
6.84251 1.85823e-12 -43.03
6.84251 1.85823e-12 -42.9533
6.84251 1.85823e-12 -42.8767
6.84251 1.85823e-12 -42.8
6.84251 1.85823e-12 -42.7233
6.84251 1.85823e-12 -42.6467
6.84251 1.85823e-12 -42.57
6.84251 1.85823e-12 -42.4933
6.84251 1.85823e-12 -42.4167
6.84251 1.85823e-12 -42.34
6.84251 1.85823e-12 -42.2633
6.84251 1.85823e-12 -42.1867
6.84251 1.85823e-12 -42.11
6.84251 1.85823e-12 -42.0333
6.84251 1.85823e-12 -41.9567
6.84251 1.85823e-12 -41.88
