ply
format ascii 1.0
element vertex 961
property float x
property float y
property float z
end_header
-2.9366 2.12347e-12 -44.18
-2.9366 2.12347e-12 -44.1033
-2.9366 2.12347e-12 -44.0267
-2.9366 2.12347e-12 -43.95
-2.9366 2.12347e-12 -43.8733
-2.9366 2.12347e-12 -43.7967
-2.9366 2.12347e-12 -43.72
-2.9366 2.12347e-12 -43.6433
-2.9366 2.12347e-12 -43.5667
-2.9366 2.12347e-12 -43.49
-2.9366 2.12347e-12 -43.4133
-2.9366 2.12347e-12 -43.3367
-2.9366 2.12347e-12 -43.26
-2.9366 2.12347e-12 -43.1833
-2.9366 2.12347e-12 -43.1067
-2.9366 2.12347e-12 -43.03
-2.9366 2.12347e-12 -42.9533
-2.9366 2.12347e-12 -42.8767
-2.9366 2.12347e-12 -42.8
-2.9366 2.12347e-12 -42.7233
-2.9366 2.12347e-12 -42.6467
-2.9366 2.12347e-12 -42.57
-2.9366 2.12347e-12 -42.4933
-2.9366 2.12347e-12 -42.4167
-2.9366 2.12347e-12 -42.34
-2.9366 2.12347e-12 -42.2633
-2.9366 2.12347e-12 -42.1867
-2.9366 2.12347e-12 -42.11
-2.9366 2.12347e-12 -42.0333
-2.9366 2.12347e-12 -41.9567
-2.9366 2.12347e-12 -41.88
-2.6539 -2.68967 -44.18
-2.6539 -2.68967 -44.1033
-2.6539 -2.68967 -44.0267
-2.6539 -2.68967 -43.95
-2.6539 -2.68967 -43.8733
-2.6539 -2.68967 -43.7967
-2.6539 -2.68967 -43.72
-2.6539 -2.68967 -43.6433
-2.6539 -2.68967 -43.5667
-2.6539 -2.68967 -43.49
-2.6539 -2.68967 -43.4133
-2.6539 -2.68967 -43.3367
-2.6539 -2.68967 -43.26
-2.6539 -2.68967 -43.1833
-2.6539 -2.68967 -43.1067
-2.6539 -2.68967 -43.03
-2.6539 -2.68967 -42.9533
-2.6539 -2.68967 -42.8767
-2.6539 -2.68967 -42.8
-2.6539 -2.68967 -42.7233
-2.6539 -2.68967 -42.6467
-2.6539 -2.68967 -42.57
-2.6539 -2.68967 -42.4933
-2.6539 -2.68967 -42.4167
-2.6539 -2.68967 -42.34
-2.6539 -2.68967 -42.2633
-2.6539 -2.68967 -42.1867
-2.6539 -2.68967 -42.11
-2.6539 -2.68967 -42.0333
-2.6539 -2.68967 -41.9567
-2.6539 -2.68967 -41.88
-1.81817 -5.26179 -44.18
-1.81817 -5.26179 -44.1033
-1.81817 -5.26179 -44.0267
-1.81817 -5.26179 -43.95
-1.81817 -5.26179 -43.8733
-1.81817 -5.26179 -43.7967
-1.81817 -5.26179 -43.72
-1.81817 -5.26179 -43.6433
-1.81817 -5.26179 -43.5667
-1.81817 -5.26179 -43.49
-1.81817 -5.26179 -43.4133
-1.81817 -5.26179 -43.3367
-1.81817 -5.26179 -43.26
-1.81817 -5.26179 -43.1833
-1.81817 -5.26179 -43.1067
-1.81817 -5.26179 -43.03
-1.81817 -5.26179 -42.9533
-1.81817 -5.26179 -42.8767
-1.81817 -5.26179 -42.8
-1.81817 -5.26179 -42.7233
-1.81817 -5.26179 -42.6467
-1.81817 -5.26179 -42.57
-1.81817 -5.26179 -42.4933
-1.81817 -5.26179 -42.4167
-1.81817 -5.26179 -42.34
-1.81817 -5.26179 -42.2633
-1.81817 -5.26179 -42.1867
-1.81817 -5.26179 -42.11
-1.81817 -5.26179 -42.0333
-1.81817 -5.26179 -41.9567
-1.81817 -5.26179 -41.88
-0.465928 -7.60394 -44.18
-0.465928 -7.60394 -44.1033
-0.465928 -7.60394 -44.0267
-0.465928 -7.60394 -43.95
-0.465928 -7.60394 -43.8733
-0.465928 -7.60394 -43.7967
-0.465928 -7.60394 -43.72
-0.465928 -7.60394 -43.6433
-0.465928 -7.60394 -43.5667
-0.465928 -7.60394 -43.49
-0.465928 -7.60394 -43.4133
-0.465928 -7.60394 -43.3367
-0.465928 -7.60394 -43.26
-0.465928 -7.60394 -43.1833
-0.465928 -7.60394 -43.1067
-0.465928 -7.60394 -43.03
-0.465928 -7.60394 -42.9533
-0.465928 -7.60394 -42.8767
-0.465928 -7.60394 -42.8
-0.465928 -7.60394 -42.7233
-0.465928 -7.60394 -42.6467
-0.465928 -7.60394 -42.57
-0.465928 -7.60394 -42.4933
-0.465928 -7.60394 -42.4167
-0.465928 -7.60394 -42.34
-0.465928 -7.60394 -42.2633
-0.465928 -7.60394 -42.1867
-0.465928 -7.60394 -42.11
-0.465928 -7.60394 -42.0333
-0.465928 -7.60394 -41.9567
-0.465928 -7.60394 -41.88
1.34373 -9.61377 -44.18
1.34373 -9.61377 -44.1033
1.34373 -9.61377 -44.0267
1.34373 -9.61377 -43.95
1.34373 -9.61377 -43.8733
1.34373 -9.61377 -43.7967
1.34373 -9.61377 -43.72
1.34373 -9.61377 -43.6433
1.34373 -9.61377 -43.5667
1.34373 -9.61377 -43.49
1.34373 -9.61377 -43.4133
1.34373 -9.61377 -43.3367
1.34373 -9.61377 -43.26
1.34373 -9.61377 -43.1833
1.34373 -9.61377 -43.1067
1.34373 -9.61377 -43.03
1.34373 -9.61377 -42.9533
1.34373 -9.61377 -42.8767
1.34373 -9.61377 -42.8
1.34373 -9.61377 -42.7233
1.34373 -9.61377 -42.6467
1.34373 -9.61377 -42.57
1.34373 -9.61377 -42.4933
1.34373 -9.61377 -42.4167
1.34373 -9.61377 -42.34
1.34373 -9.61377 -42.2633
1.34373 -9.61377 -42.1867
1.34373 -9.61377 -42.11
1.34373 -9.61377 -42.0333
1.34373 -9.61377 -41.9567
1.34373 -9.61377 -41.88
3.5317 -11.2034 -44.18
3.5317 -11.2034 -44.1033
3.5317 -11.2034 -44.0267
3.5317 -11.2034 -43.95
3.5317 -11.2034 -43.8733
3.5317 -11.2034 -43.7967
3.5317 -11.2034 -43.72
3.5317 -11.2034 -43.6433
3.5317 -11.2034 -43.5667
3.5317 -11.2034 -43.49
3.5317 -11.2034 -43.4133
3.5317 -11.2034 -43.3367
3.5317 -11.2034 -43.26
3.5317 -11.2034 -43.1833
3.5317 -11.2034 -43.1067
3.5317 -11.2034 -43.03
3.5317 -11.2034 -42.9533
3.5317 -11.2034 -42.8767
3.5317 -11.2034 -42.8
3.5317 -11.2034 -42.7233
3.5317 -11.2034 -42.6467
3.5317 -11.2034 -42.57
3.5317 -11.2034 -42.4933
3.5317 -11.2034 -42.4167
3.5317 -11.2034 -42.34
3.5317 -11.2034 -42.2633
3.5317 -11.2034 -42.1867
3.5317 -11.2034 -42.11
3.5317 -11.2034 -42.0333
3.5317 -11.2034 -41.9567
3.5317 -11.2034 -41.88
6.00237 -12.3034 -44.18
6.00237 -12.3034 -44.1033
6.00237 -12.3034 -44.0267
6.00237 -12.3034 -43.95
6.00237 -12.3034 -43.8733
6.00237 -12.3034 -43.7967
6.00237 -12.3034 -43.72
6.00237 -12.3034 -43.6433
6.00237 -12.3034 -43.5667
6.00237 -12.3034 -43.49
6.00237 -12.3034 -43.4133
6.00237 -12.3034 -43.3367
6.00237 -12.3034 -43.26
6.00237 -12.3034 -43.1833
6.00237 -12.3034 -43.1067
6.00237 -12.3034 -43.03
6.00237 -12.3034 -42.9533
6.00237 -12.3034 -42.8767
6.00237 -12.3034 -42.8
6.00237 -12.3034 -42.7233
6.00237 -12.3034 -42.6467
6.00237 -12.3034 -42.57
6.00237 -12.3034 -42.4933
6.00237 -12.3034 -42.4167
6.00237 -12.3034 -42.34
6.00237 -12.3034 -42.2633
6.00237 -12.3034 -42.1867
6.00237 -12.3034 -42.11
6.00237 -12.3034 -42.0333
6.00237 -12.3034 -41.9567
6.00237 -12.3034 -41.88
8.64776 -12.8657 -44.18
8.64776 -12.8657 -44.1033
8.64776 -12.8657 -44.0267
8.64776 -12.8657 -43.95
8.64776 -12.8657 -43.8733
8.64776 -12.8657 -43.7967
8.64776 -12.8657 -43.72
8.64776 -12.8657 -43.6433
8.64776 -12.8657 -43.5667
8.64776 -12.8657 -43.49
8.64776 -12.8657 -43.4133
8.64776 -12.8657 -43.3367
8.64776 -12.8657 -43.26
8.64776 -12.8657 -43.1833
8.64776 -12.8657 -43.1067
8.64776 -12.8657 -43.03
8.64776 -12.8657 -42.9533
8.64776 -12.8657 -42.8767
8.64776 -12.8657 -42.8
8.64776 -12.8657 -42.7233
8.64776 -12.8657 -42.6467
8.64776 -12.8657 -42.57
8.64776 -12.8657 -42.4933
8.64776 -12.8657 -42.4167
8.64776 -12.8657 -42.34
8.64776 -12.8657 -42.2633
8.64776 -12.8657 -42.1867
8.64776 -12.8657 -42.11
8.64776 -12.8657 -42.0333
8.64776 -12.8657 -41.9567
8.64776 -12.8657 -41.88
11.3522 -12.8657 -44.18
11.3522 -12.8657 -44.1033
11.3522 -12.8657 -44.0267
11.3522 -12.8657 -43.95
11.3522 -12.8657 -43.8733
11.3522 -12.8657 -43.7967
11.3522 -12.8657 -43.72
11.3522 -12.8657 -43.6433
11.3522 -12.8657 -43.5667
11.3522 -12.8657 -43.49
11.3522 -12.8657 -43.4133
11.3522 -12.8657 -43.3367
11.3522 -12.8657 -43.26
11.3522 -12.8657 -43.1833
11.3522 -12.8657 -43.1067
11.3522 -12.8657 -43.03
11.3522 -12.8657 -42.9533
11.3522 -12.8657 -42.8767
11.3522 -12.8657 -42.8
11.3522 -12.8657 -42.7233
11.3522 -12.8657 -42.6467
11.3522 -12.8657 -42.57
11.3522 -12.8657 -42.4933
11.3522 -12.8657 -42.4167
11.3522 -12.8657 -42.34
11.3522 -12.8657 -42.2633
11.3522 -12.8657 -42.1867
11.3522 -12.8657 -42.11
11.3522 -12.8657 -42.0333
11.3522 -12.8657 -41.9567
11.3522 -12.8657 -41.88
13.9976 -12.3034 -44.18
13.9976 -12.3034 -44.1033
13.9976 -12.3034 -44.0267
13.9976 -12.3034 -43.95
13.9976 -12.3034 -43.8733
13.9976 -12.3034 -43.7967
13.9976 -12.3034 -43.72
13.9976 -12.3034 -43.6433
13.9976 -12.3034 -43.5667
13.9976 -12.3034 -43.49
13.9976 -12.3034 -43.4133
13.9976 -12.3034 -43.3367
13.9976 -12.3034 -43.26
13.9976 -12.3034 -43.1833
13.9976 -12.3034 -43.1067
13.9976 -12.3034 -43.03
13.9976 -12.3034 -42.9533
13.9976 -12.3034 -42.8767
13.9976 -12.3034 -42.8
13.9976 -12.3034 -42.7233
13.9976 -12.3034 -42.6467
13.9976 -12.3034 -42.57
13.9976 -12.3034 -42.4933
13.9976 -12.3034 -42.4167
13.9976 -12.3034 -42.34
13.9976 -12.3034 -42.2633
13.9976 -12.3034 -42.1867
13.9976 -12.3034 -42.11
13.9976 -12.3034 -42.0333
13.9976 -12.3034 -41.9567
13.9976 -12.3034 -41.88
16.4683 -11.2034 -44.18
16.4683 -11.2034 -44.1033
16.4683 -11.2034 -44.0267
16.4683 -11.2034 -43.95
16.4683 -11.2034 -43.8733
16.4683 -11.2034 -43.7967
16.4683 -11.2034 -43.72
16.4683 -11.2034 -43.6433
16.4683 -11.2034 -43.5667
16.4683 -11.2034 -43.49
16.4683 -11.2034 -43.4133
16.4683 -11.2034 -43.3367
16.4683 -11.2034 -43.26
16.4683 -11.2034 -43.1833
16.4683 -11.2034 -43.1067
16.4683 -11.2034 -43.03
16.4683 -11.2034 -42.9533
16.4683 -11.2034 -42.8767
16.4683 -11.2034 -42.8
16.4683 -11.2034 -42.7233
16.4683 -11.2034 -42.6467
16.4683 -11.2034 -42.57
16.4683 -11.2034 -42.4933
16.4683 -11.2034 -42.4167
16.4683 -11.2034 -42.34
16.4683 -11.2034 -42.2633
16.4683 -11.2034 -42.1867
16.4683 -11.2034 -42.11
16.4683 -11.2034 -42.0333
16.4683 -11.2034 -41.9567
16.4683 -11.2034 -41.88
18.6563 -9.61377 -44.18
18.6563 -9.61377 -44.1033
18.6563 -9.61377 -44.0267
18.6563 -9.61377 -43.95
18.6563 -9.61377 -43.8733
18.6563 -9.61377 -43.7967
18.6563 -9.61377 -43.72
18.6563 -9.61377 -43.6433
18.6563 -9.61377 -43.5667
18.6563 -9.61377 -43.49
18.6563 -9.61377 -43.4133
18.6563 -9.61377 -43.3367
18.6563 -9.61377 -43.26
18.6563 -9.61377 -43.1833
18.6563 -9.61377 -43.1067
18.6563 -9.61377 -43.03
18.6563 -9.61377 -42.9533
18.6563 -9.61377 -42.8767
18.6563 -9.61377 -42.8
18.6563 -9.61377 -42.7233
18.6563 -9.61377 -42.6467
18.6563 -9.61377 -42.57
18.6563 -9.61377 -42.4933
18.6563 -9.61377 -42.4167
18.6563 -9.61377 -42.34
18.6563 -9.61377 -42.2633
18.6563 -9.61377 -42.1867
18.6563 -9.61377 -42.11
18.6563 -9.61377 -42.0333
18.6563 -9.61377 -41.9567
18.6563 -9.61377 -41.88
20.4659 -7.60394 -44.18
20.4659 -7.60394 -44.1033
20.4659 -7.60394 -44.0267
20.4659 -7.60394 -43.95
20.4659 -7.60394 -43.8733
20.4659 -7.60394 -43.7967
20.4659 -7.60394 -43.72
20.4659 -7.60394 -43.6433
20.4659 -7.60394 -43.5667
20.4659 -7.60394 -43.49
20.4659 -7.60394 -43.4133
20.4659 -7.60394 -43.3367
20.4659 -7.60394 -43.26
20.4659 -7.60394 -43.1833
20.4659 -7.60394 -43.1067
20.4659 -7.60394 -43.03
20.4659 -7.60394 -42.9533
20.4659 -7.60394 -42.8767
20.4659 -7.60394 -42.8
20.4659 -7.60394 -42.7233
20.4659 -7.60394 -42.6467
20.4659 -7.60394 -42.57
20.4659 -7.60394 -42.4933
20.4659 -7.60394 -42.4167
20.4659 -7.60394 -42.34
20.4659 -7.60394 -42.2633
20.4659 -7.60394 -42.1867
20.4659 -7.60394 -42.11
20.4659 -7.60394 -42.0333
20.4659 -7.60394 -41.9567
20.4659 -7.60394 -41.88
21.8182 -5.26179 -44.18
21.8182 -5.26179 -44.1033
21.8182 -5.26179 -44.0267
21.8182 -5.26179 -43.95
21.8182 -5.26179 -43.8733
21.8182 -5.26179 -43.7967
21.8182 -5.26179 -43.72
21.8182 -5.26179 -43.6433
21.8182 -5.26179 -43.5667
21.8182 -5.26179 -43.49
21.8182 -5.26179 -43.4133
21.8182 -5.26179 -43.3367
21.8182 -5.26179 -43.26
21.8182 -5.26179 -43.1833
21.8182 -5.26179 -43.1067
21.8182 -5.26179 -43.03
21.8182 -5.26179 -42.9533
21.8182 -5.26179 -42.8767
21.8182 -5.26179 -42.8
21.8182 -5.26179 -42.7233
21.8182 -5.26179 -42.6467
21.8182 -5.26179 -42.57
21.8182 -5.26179 -42.4933
21.8182 -5.26179 -42.4167
21.8182 -5.26179 -42.34
21.8182 -5.26179 -42.2633
21.8182 -5.26179 -42.1867
21.8182 -5.26179 -42.11
21.8182 -5.26179 -42.0333
21.8182 -5.26179 -41.9567
21.8182 -5.26179 -41.88
22.6539 -2.68967 -44.18
22.6539 -2.68967 -44.1033
22.6539 -2.68967 -44.0267
22.6539 -2.68967 -43.95
22.6539 -2.68967 -43.8733
22.6539 -2.68967 -43.7967
22.6539 -2.68967 -43.72
22.6539 -2.68967 -43.6433
22.6539 -2.68967 -43.5667
22.6539 -2.68967 -43.49
22.6539 -2.68967 -43.4133
22.6539 -2.68967 -43.3367
22.6539 -2.68967 -43.26
22.6539 -2.68967 -43.1833
22.6539 -2.68967 -43.1067
22.6539 -2.68967 -43.03
22.6539 -2.68967 -42.9533
22.6539 -2.68967 -42.8767
22.6539 -2.68967 -42.8
22.6539 -2.68967 -42.7233
22.6539 -2.68967 -42.6467
22.6539 -2.68967 -42.57
22.6539 -2.68967 -42.4933
22.6539 -2.68967 -42.4167
22.6539 -2.68967 -42.34
22.6539 -2.68967 -42.2633
22.6539 -2.68967 -42.1867
22.6539 -2.68967 -42.11
22.6539 -2.68967 -42.0333
22.6539 -2.68967 -41.9567
22.6539 -2.68967 -41.88
22.9366 2.11872e-12 -44.18
22.9366 2.11872e-12 -44.1033
22.9366 2.11872e-12 -44.0267
22.9366 2.11872e-12 -43.95
22.9366 2.11872e-12 -43.8733
22.9366 2.11872e-12 -43.7967
22.9366 2.11872e-12 -43.72
22.9366 2.11872e-12 -43.6433
22.9366 2.11872e-12 -43.5667
22.9366 2.11872e-12 -43.49
22.9366 2.11872e-12 -43.4133
22.9366 2.11872e-12 -43.3367
22.9366 2.11872e-12 -43.26
22.9366 2.11872e-12 -43.1833
22.9366 2.11872e-12 -43.1067
22.9366 2.11872e-12 -43.03
22.9366 2.11872e-12 -42.9533
22.9366 2.11872e-12 -42.8767
22.9366 2.11872e-12 -42.8
22.9366 2.11872e-12 -42.7233
22.9366 2.11872e-12 -42.6467
22.9366 2.11872e-12 -42.57
22.9366 2.11872e-12 -42.4933
22.9366 2.11872e-12 -42.4167
22.9366 2.11872e-12 -42.34
22.9366 2.11872e-12 -42.2633
22.9366 2.11872e-12 -42.1867
22.9366 2.11872e-12 -42.11
22.9366 2.11872e-12 -42.0333
22.9366 2.11872e-12 -41.9567
22.9366 2.11872e-12 -41.88
22.6539 2.68967 -44.18
22.6539 2.68967 -44.1033
22.6539 2.68967 -44.0267
22.6539 2.68967 -43.95
22.6539 2.68967 -43.8733
22.6539 2.68967 -43.7967
22.6539 2.68967 -43.72
22.6539 2.68967 -43.6433
22.6539 2.68967 -43.5667
22.6539 2.68967 -43.49
22.6539 2.68967 -43.4133
22.6539 2.68967 -43.3367
22.6539 2.68967 -43.26
22.6539 2.68967 -43.1833
22.6539 2.68967 -43.1067
22.6539 2.68967 -43.03
22.6539 2.68967 -42.9533
22.6539 2.68967 -42.8767
22.6539 2.68967 -42.8
22.6539 2.68967 -42.7233
22.6539 2.68967 -42.6467
22.6539 2.68967 -42.57
22.6539 2.68967 -42.4933
22.6539 2.68967 -42.4167
22.6539 2.68967 -42.34
22.6539 2.68967 -42.2633
22.6539 2.68967 -42.1867
22.6539 2.68967 -42.11
22.6539 2.68967 -42.0333
22.6539 2.68967 -41.9567
22.6539 2.68967 -41.88
21.8182 5.26179 -44.18
21.8182 5.26179 -44.1033
21.8182 5.26179 -44.0267
21.8182 5.26179 -43.95
21.8182 5.26179 -43.8733
21.8182 5.26179 -43.7967
21.8182 5.26179 -43.72
21.8182 5.26179 -43.6433
21.8182 5.26179 -43.5667
21.8182 5.26179 -43.49
21.8182 5.26179 -43.4133
21.8182 5.26179 -43.3367
21.8182 5.26179 -43.26
21.8182 5.26179 -43.1833
21.8182 5.26179 -43.1067
21.8182 5.26179 -43.03
21.8182 5.26179 -42.9533
21.8182 5.26179 -42.8767
21.8182 5.26179 -42.8
21.8182 5.26179 -42.7233
21.8182 5.26179 -42.6467
21.8182 5.26179 -42.57
21.8182 5.26179 -42.4933
21.8182 5.26179 -42.4167
21.8182 5.26179 -42.34
21.8182 5.26179 -42.2633
21.8182 5.26179 -42.1867
21.8182 5.26179 -42.11
21.8182 5.26179 -42.0333
21.8182 5.26179 -41.9567
21.8182 5.26179 -41.88
20.4659 7.60394 -44.18
20.4659 7.60394 -44.1033
20.4659 7.60394 -44.0267
20.4659 7.60394 -43.95
20.4659 7.60394 -43.8733
20.4659 7.60394 -43.7967
20.4659 7.60394 -43.72
20.4659 7.60394 -43.6433
20.4659 7.60394 -43.5667
20.4659 7.60394 -43.49
20.4659 7.60394 -43.4133
20.4659 7.60394 -43.3367
20.4659 7.60394 -43.26
20.4659 7.60394 -43.1833
20.4659 7.60394 -43.1067
20.4659 7.60394 -43.03
20.4659 7.60394 -42.9533
20.4659 7.60394 -42.8767
20.4659 7.60394 -42.8
20.4659 7.60394 -42.7233
20.4659 7.60394 -42.6467
20.4659 7.60394 -42.57
20.4659 7.60394 -42.4933
20.4659 7.60394 -42.4167
20.4659 7.60394 -42.34
20.4659 7.60394 -42.2633
20.4659 7.60394 -42.1867
20.4659 7.60394 -42.11
20.4659 7.60394 -42.0333
20.4659 7.60394 -41.9567
20.4659 7.60394 -41.88
18.6563 9.61377 -44.18
18.6563 9.61377 -44.1033
18.6563 9.61377 -44.0267
18.6563 9.61377 -43.95
18.6563 9.61377 -43.8733
18.6563 9.61377 -43.7967
18.6563 9.61377 -43.72
18.6563 9.61377 -43.6433
18.6563 9.61377 -43.5667
18.6563 9.61377 -43.49
18.6563 9.61377 -43.4133
18.6563 9.61377 -43.3367
18.6563 9.61377 -43.26
18.6563 9.61377 -43.1833
18.6563 9.61377 -43.1067
18.6563 9.61377 -43.03
18.6563 9.61377 -42.9533
18.6563 9.61377 -42.8767
18.6563 9.61377 -42.8
18.6563 9.61377 -42.7233
18.6563 9.61377 -42.6467
18.6563 9.61377 -42.57
18.6563 9.61377 -42.4933
18.6563 9.61377 -42.4167
18.6563 9.61377 -42.34
18.6563 9.61377 -42.2633
18.6563 9.61377 -42.1867
18.6563 9.61377 -42.11
18.6563 9.61377 -42.0333
18.6563 9.61377 -41.9567
18.6563 9.61377 -41.88
16.4683 11.2034 -44.18
16.4683 11.2034 -44.1033
16.4683 11.2034 -44.0267
16.4683 11.2034 -43.95
16.4683 11.2034 -43.8733
16.4683 11.2034 -43.7967
16.4683 11.2034 -43.72
16.4683 11.2034 -43.6433
16.4683 11.2034 -43.5667
16.4683 11.2034 -43.49
16.4683 11.2034 -43.4133
16.4683 11.2034 -43.3367
16.4683 11.2034 -43.26
16.4683 11.2034 -43.1833
16.4683 11.2034 -43.1067
16.4683 11.2034 -43.03
16.4683 11.2034 -42.9533
16.4683 11.2034 -42.8767
16.4683 11.2034 -42.8
16.4683 11.2034 -42.7233
16.4683 11.2034 -42.6467
16.4683 11.2034 -42.57
16.4683 11.2034 -42.4933
16.4683 11.2034 -42.4167
16.4683 11.2034 -42.34
16.4683 11.2034 -42.2633
16.4683 11.2034 -42.1867
16.4683 11.2034 -42.11
16.4683 11.2034 -42.0333
16.4683 11.2034 -41.9567
16.4683 11.2034 -41.88
13.9976 12.3034 -44.18
13.9976 12.3034 -44.1033
13.9976 12.3034 -44.0267
13.9976 12.3034 -43.95
13.9976 12.3034 -43.8733
13.9976 12.3034 -43.7967
13.9976 12.3034 -43.72
13.9976 12.3034 -43.6433
13.9976 12.3034 -43.5667
13.9976 12.3034 -43.49
13.9976 12.3034 -43.4133
13.9976 12.3034 -43.3367
13.9976 12.3034 -43.26
13.9976 12.3034 -43.1833
13.9976 12.3034 -43.1067
13.9976 12.3034 -43.03
13.9976 12.3034 -42.9533
13.9976 12.3034 -42.8767
13.9976 12.3034 -42.8
13.9976 12.3034 -42.7233
13.9976 12.3034 -42.6467
13.9976 12.3034 -42.57
13.9976 12.3034 -42.4933
13.9976 12.3034 -42.4167
13.9976 12.3034 -42.34
13.9976 12.3034 -42.2633
13.9976 12.3034 -42.1867
13.9976 12.3034 -42.11
13.9976 12.3034 -42.0333
13.9976 12.3034 -41.9567
13.9976 12.3034 -41.88
11.3522 12.8657 -44.18
11.3522 12.8657 -44.1033
11.3522 12.8657 -44.0267
11.3522 12.8657 -43.95
11.3522 12.8657 -43.8733
11.3522 12.8657 -43.7967
11.3522 12.8657 -43.72
11.3522 12.8657 -43.6433
11.3522 12.8657 -43.5667
11.3522 12.8657 -43.49
11.3522 12.8657 -43.4133
11.3522 12.8657 -43.3367
11.3522 12.8657 -43.26
11.3522 12.8657 -43.1833
11.3522 12.8657 -43.1067
11.3522 12.8657 -43.03
11.3522 12.8657 -42.9533
11.3522 12.8657 -42.8767
11.3522 12.8657 -42.8
11.3522 12.8657 -42.7233
11.3522 12.8657 -42.6467
11.3522 12.8657 -42.57
11.3522 12.8657 -42.4933
11.3522 12.8657 -42.4167
11.3522 12.8657 -42.34
11.3522 12.8657 -42.2633
11.3522 12.8657 -42.1867
11.3522 12.8657 -42.11
11.3522 12.8657 -42.0333
11.3522 12.8657 -41.9567
11.3522 12.8657 -41.88
8.64776 12.8657 -44.18
8.64776 12.8657 -44.1033
8.64776 12.8657 -44.0267
8.64776 12.8657 -43.95
8.64776 12.8657 -43.8733
8.64776 12.8657 -43.7967
8.64776 12.8657 -43.72
8.64776 12.8657 -43.6433
8.64776 12.8657 -43.5667
8.64776 12.8657 -43.49
8.64776 12.8657 -43.4133
8.64776 12.8657 -43.3367
8.64776 12.8657 -43.26
8.64776 12.8657 -43.1833
8.64776 12.8657 -43.1067
8.64776 12.8657 -43.03
8.64776 12.8657 -42.9533
8.64776 12.8657 -42.8767
8.64776 12.8657 -42.8
8.64776 12.8657 -42.7233
8.64776 12.8657 -42.6467
8.64776 12.8657 -42.57
8.64776 12.8657 -42.4933
8.64776 12.8657 -42.4167
8.64776 12.8657 -42.34
8.64776 12.8657 -42.2633
8.64776 12.8657 -42.1867
8.64776 12.8657 -42.11
8.64776 12.8657 -42.0333
8.64776 12.8657 -41.9567
8.64776 12.8657 -41.88
6.00237 12.3034 -44.18
6.00237 12.3034 -44.1033
6.00237 12.3034 -44.0267
6.00237 12.3034 -43.95
6.00237 12.3034 -43.8733
6.00237 12.3034 -43.7967
6.00237 12.3034 -43.72
6.00237 12.3034 -43.6433
6.00237 12.3034 -43.5667
6.00237 12.3034 -43.49
6.00237 12.3034 -43.4133
6.00237 12.3034 -43.3367
6.00237 12.3034 -43.26
6.00237 12.3034 -43.1833
6.00237 12.3034 -43.1067
6.00237 12.3034 -43.03
6.00237 12.3034 -42.9533
6.00237 12.3034 -42.8767
6.00237 12.3034 -42.8
6.00237 12.3034 -42.7233
6.00237 12.3034 -42.6467
6.00237 12.3034 -42.57
6.00237 12.3034 -42.4933
6.00237 12.3034 -42.4167
6.00237 12.3034 -42.34
6.00237 12.3034 -42.2633
6.00237 12.3034 -42.1867
6.00237 12.3034 -42.11
6.00237 12.3034 -42.0333
6.00237 12.3034 -41.9567
6.00237 12.3034 -41.88
3.5317 11.2034 -44.18
3.5317 11.2034 -44.1033
3.5317 11.2034 -44.0267
3.5317 11.2034 -43.95
3.5317 11.2034 -43.8733
3.5317 11.2034 -43.7967
3.5317 11.2034 -43.72
3.5317 11.2034 -43.6433
3.5317 11.2034 -43.5667
3.5317 11.2034 -43.49
3.5317 11.2034 -43.4133
3.5317 11.2034 -43.3367
3.5317 11.2034 -43.26
3.5317 11.2034 -43.1833
3.5317 11.2034 -43.1067
3.5317 11.2034 -43.03
3.5317 11.2034 -42.9533
3.5317 11.2034 -42.8767
3.5317 11.2034 -42.8
3.5317 11.2034 -42.7233
3.5317 11.2034 -42.6467
3.5317 11.2034 -42.57
3.5317 11.2034 -42.4933
3.5317 11.2034 -42.4167
3.5317 11.2034 -42.34
3.5317 11.2034 -42.2633
3.5317 11.2034 -42.1867
3.5317 11.2034 -42.11
3.5317 11.2034 -42.0333
3.5317 11.2034 -41.9567
3.5317 11.2034 -41.88
1.34373 9.61377 -44.18
1.34373 9.61377 -44.1033
1.34373 9.61377 -44.0267
1.34373 9.61377 -43.95
1.34373 9.61377 -43.8733
1.34373 9.61377 -43.7967
1.34373 9.61377 -43.72
1.34373 9.61377 -43.6433
1.34373 9.61377 -43.5667
1.34373 9.61377 -43.49
1.34373 9.61377 -43.4133
1.34373 9.61377 -43.3367
1.34373 9.61377 -43.26
1.34373 9.61377 -43.1833
1.34373 9.61377 -43.1067
1.34373 9.61377 -43.03
1.34373 9.61377 -42.9533
1.34373 9.61377 -42.8767
1.34373 9.61377 -42.8
1.34373 9.61377 -42.7233
1.34373 9.61377 -42.6467
1.34373 9.61377 -42.57
1.34373 9.61377 -42.4933
1.34373 9.61377 -42.4167
1.34373 9.61377 -42.34
1.34373 9.61377 -42.2633
1.34373 9.61377 -42.1867
1.34373 9.61377 -42.11
1.34373 9.61377 -42.0333
1.34373 9.61377 -41.9567
1.34373 9.61377 -41.88
-0.465928 7.60394 -44.18
-0.465928 7.60394 -44.1033
-0.465928 7.60394 -44.0267
-0.465928 7.60394 -43.95
-0.465928 7.60394 -43.8733
-0.465928 7.60394 -43.7967
-0.465928 7.60394 -43.72
-0.465928 7.60394 -43.6433
-0.465928 7.60394 -43.5667
-0.465928 7.60394 -43.49
-0.465928 7.60394 -43.4133
-0.465928 7.60394 -43.3367
-0.465928 7.60394 -43.26
-0.465928 7.60394 -43.1833
-0.465928 7.60394 -43.1067
-0.465928 7.60394 -43.03
-0.465928 7.60394 -42.9533
-0.465928 7.60394 -42.8767
-0.465928 7.60394 -42.8
-0.465928 7.60394 -42.7233
-0.465928 7.60394 -42.6467
-0.465928 7.60394 -42.57
-0.465928 7.60394 -42.4933
-0.465928 7.60394 -42.4167
-0.465928 7.60394 -42.34
-0.465928 7.60394 -42.2633
-0.465928 7.60394 -42.1867
-0.465928 7.60394 -42.11
-0.465928 7.60394 -42.0333
-0.465928 7.60394 -41.9567
-0.465928 7.60394 -41.88
-1.81817 5.26179 -44.18
-1.81817 5.26179 -44.1033
-1.81817 5.26179 -44.0267
-1.81817 5.26179 -43.95
-1.81817 5.26179 -43.8733
-1.81817 5.26179 -43.7967
-1.81817 5.26179 -43.72
-1.81817 5.26179 -43.6433
-1.81817 5.26179 -43.5667
-1.81817 5.26179 -43.49
-1.81817 5.26179 -43.4133
-1.81817 5.26179 -43.3367
-1.81817 5.26179 -43.26
-1.81817 5.26179 -43.1833
-1.81817 5.26179 -43.1067
-1.81817 5.26179 -43.03
-1.81817 5.26179 -42.9533
-1.81817 5.26179 -42.8767
-1.81817 5.26179 -42.8
-1.81817 5.26179 -42.7233
-1.81817 5.26179 -42.6467
-1.81817 5.26179 -42.57
-1.81817 5.26179 -42.4933
-1.81817 5.26179 -42.4167
-1.81817 5.26179 -42.34
-1.81817 5.26179 -42.2633
-1.81817 5.26179 -42.1867
-1.81817 5.26179 -42.11
-1.81817 5.26179 -42.0333
-1.81817 5.26179 -41.9567
-1.81817 5.26179 -41.88
-2.6539 2.68967 -44.18
-2.6539 2.68967 -44.1033
-2.6539 2.68967 -44.0267
-2.6539 2.68967 -43.95
-2.6539 2.68967 -43.8733
-2.6539 2.68967 -43.7967
-2.6539 2.68967 -43.72
-2.6539 2.68967 -43.6433
-2.6539 2.68967 -43.5667
-2.6539 2.68967 -43.49
-2.6539 2.68967 -43.4133
-2.6539 2.68967 -43.3367
-2.6539 2.68967 -43.26
-2.6539 2.68967 -43.1833
-2.6539 2.68967 -43.1067
-2.6539 2.68967 -43.03
-2.6539 2.68967 -42.9533
-2.6539 2.68967 -42.8767
-2.6539 2.68967 -42.8
-2.6539 2.68967 -42.7233
-2.6539 2.68967 -42.6467
-2.6539 2.68967 -42.57
-2.6539 2.68967 -42.4933
-2.6539 2.68967 -42.4167
-2.6539 2.68967 -42.34
-2.6539 2.68967 -42.2633
-2.6539 2.68967 -42.1867
-2.6539 2.68967 -42.11
-2.6539 2.68967 -42.0333
-2.6539 2.68967 -41.9567
-2.6539 2.68967 -41.88
-2.9366 2.12664e-12 -44.18
-2.9366 2.12664e-12 -44.1033
-2.9366 2.12664e-12 -44.0267
-2.9366 2.12664e-12 -43.95
-2.9366 2.12664e-12 -43.8733
-2.9366 2.12664e-12 -43.7967
-2.9366 2.12664e-12 -43.72
-2.9366 2.12664e-12 -43.6433
-2.9366 2.12664e-12 -43.5667
-2.9366 2.12664e-12 -43.49
-2.9366 2.12664e-12 -43.4133
-2.9366 2.12664e-12 -43.3367
-2.9366 2.12664e-12 -43.26
-2.9366 2.12664e-12 -43.1833
-2.9366 2.12664e-12 -43.1067
-2.9366 2.12664e-12 -43.03
-2.9366 2.12664e-12 -42.9533
-2.9366 2.12664e-12 -42.8767
-2.9366 2.12664e-12 -42.8
-2.9366 2.12664e-12 -42.7233
-2.9366 2.12664e-12 -42.6467
-2.9366 2.12664e-12 -42.57
-2.9366 2.12664e-12 -42.4933
-2.9366 2.12664e-12 -42.4167
-2.9366 2.12664e-12 -42.34
-2.9366 2.12664e-12 -42.2633
-2.9366 2.12664e-12 -42.1867
-2.9366 2.12664e-12 -42.11
-2.9366 2.12664e-12 -42.0333
-2.9366 2.12664e-12 -41.9567
-2.9366 2.12664e-12 -41.88
