ply
format ascii 1.0
element vertex 961
property float x
property float y
property float z
end_header
6.17176 1.85773e-12 -41.88
6.17176 1.85773e-12 -41.7467
6.17176 1.85773e-12 -41.6133
6.17176 1.85773e-12 -41.48
6.17176 1.85773e-12 -41.3467
6.17176 1.85773e-12 -41.2133
6.17176 1.85773e-12 -41.08
6.17176 1.85773e-12 -40.9467
6.17176 1.85773e-12 -40.8133
6.17176 1.85773e-12 -40.68
6.17176 1.85773e-12 -40.5467
6.17176 1.85773e-12 -40.4133
6.17176 1.85773e-12 -40.28
6.17176 1.85773e-12 -40.1467
6.17176 1.85773e-12 -40.0133
6.17176 1.85773e-12 -39.88
6.17176 1.85773e-12 -39.7467
6.17176 1.85773e-12 -39.6133
6.17176 1.85773e-12 -39.48
6.17176 1.85773e-12 -39.3467
6.17176 1.85773e-12 -39.2133
6.17176 1.85773e-12 -39.08
6.17176 1.85773e-12 -38.9467
6.17176 1.85773e-12 -38.8133
6.17176 1.85773e-12 -38.68
6.17176 1.85773e-12 -38.5467
6.17176 1.85773e-12 -38.4133
6.17176 1.85773e-12 -38.28
6.17176 1.85773e-12 -38.1467
6.17176 1.85773e-12 -38.0133
6.17176 1.85773e-12 -37.88
6.25542 -0.795935 -41.88
6.25542 -0.795935 -41.7467
6.25542 -0.795935 -41.6133
6.25542 -0.795935 -41.48
6.25542 -0.795935 -41.3467
6.25542 -0.795935 -41.2133
6.25542 -0.795935 -41.08
6.25542 -0.795935 -40.9467
6.25542 -0.795935 -40.8133
6.25542 -0.795935 -40.68
6.25542 -0.795935 -40.5467
6.25542 -0.795935 -40.4133
6.25542 -0.795935 -40.28
6.25542 -0.795935 -40.1467
6.25542 -0.795935 -40.0133
6.25542 -0.795935 -39.88
6.25542 -0.795935 -39.7467
6.25542 -0.795935 -39.6133
6.25542 -0.795935 -39.48
6.25542 -0.795935 -39.3467
6.25542 -0.795935 -39.2133
6.25542 -0.795935 -39.08
6.25542 -0.795935 -38.9467
6.25542 -0.795935 -38.8133
6.25542 -0.795935 -38.68
6.25542 -0.795935 -38.5467
6.25542 -0.795935 -38.4133
6.25542 -0.795935 -38.28
6.25542 -0.795935 -38.1467
6.25542 -0.795935 -38.0133
6.25542 -0.795935 -37.88
6.50273 -1.55708 -41.88
6.50273 -1.55708 -41.7467
6.50273 -1.55708 -41.6133
6.50273 -1.55708 -41.48
6.50273 -1.55708 -41.3467
6.50273 -1.55708 -41.2133
6.50273 -1.55708 -41.08
6.50273 -1.55708 -40.9467
6.50273 -1.55708 -40.8133
6.50273 -1.55708 -40.68
6.50273 -1.55708 -40.5467
6.50273 -1.55708 -40.4133
6.50273 -1.55708 -40.28
6.50273 -1.55708 -40.1467
6.50273 -1.55708 -40.0133
6.50273 -1.55708 -39.88
6.50273 -1.55708 -39.7467
6.50273 -1.55708 -39.6133
6.50273 -1.55708 -39.48
6.50273 -1.55708 -39.3467
6.50273 -1.55708 -39.2133
6.50273 -1.55708 -39.08
6.50273 -1.55708 -38.9467
6.50273 -1.55708 -38.8133
6.50273 -1.55708 -38.68
6.50273 -1.55708 -38.5467
6.50273 -1.55708 -38.4133
6.50273 -1.55708 -38.28
6.50273 -1.55708 -38.1467
6.50273 -1.55708 -38.0133
6.50273 -1.55708 -37.88
6.90289 -2.25018 -41.88
6.90289 -2.25018 -41.7467
6.90289 -2.25018 -41.6133
6.90289 -2.25018 -41.48
6.90289 -2.25018 -41.3467
6.90289 -2.25018 -41.2133
6.90289 -2.25018 -41.08
6.90289 -2.25018 -40.9467
6.90289 -2.25018 -40.8133
6.90289 -2.25018 -40.68
6.90289 -2.25018 -40.5467
6.90289 -2.25018 -40.4133
6.90289 -2.25018 -40.28
6.90289 -2.25018 -40.1467
6.90289 -2.25018 -40.0133
6.90289 -2.25018 -39.88
6.90289 -2.25018 -39.7467
6.90289 -2.25018 -39.6133
6.90289 -2.25018 -39.48
6.90289 -2.25018 -39.3467
6.90289 -2.25018 -39.2133
6.90289 -2.25018 -39.08
6.90289 -2.25018 -38.9467
6.90289 -2.25018 -38.8133
6.90289 -2.25018 -38.68
6.90289 -2.25018 -38.5467
6.90289 -2.25018 -38.4133
6.90289 -2.25018 -38.28
6.90289 -2.25018 -38.1467
6.90289 -2.25018 -38.0133
6.90289 -2.25018 -37.88
7.43841 -2.84494 -41.88
7.43841 -2.84494 -41.7467
7.43841 -2.84494 -41.6133
7.43841 -2.84494 -41.48
7.43841 -2.84494 -41.3467
7.43841 -2.84494 -41.2133
7.43841 -2.84494 -41.08
7.43841 -2.84494 -40.9467
7.43841 -2.84494 -40.8133
7.43841 -2.84494 -40.68
7.43841 -2.84494 -40.5467
7.43841 -2.84494 -40.4133
7.43841 -2.84494 -40.28
7.43841 -2.84494 -40.1467
7.43841 -2.84494 -40.0133
7.43841 -2.84494 -39.88
7.43841 -2.84494 -39.7467
7.43841 -2.84494 -39.6133
7.43841 -2.84494 -39.48
7.43841 -2.84494 -39.3467
7.43841 -2.84494 -39.2133
7.43841 -2.84494 -39.08
7.43841 -2.84494 -38.9467
7.43841 -2.84494 -38.8133
7.43841 -2.84494 -38.68
7.43841 -2.84494 -38.5467
7.43841 -2.84494 -38.4133
7.43841 -2.84494 -38.28
7.43841 -2.84494 -38.1467
7.43841 -2.84494 -38.0133
7.43841 -2.84494 -37.88
8.08588 -3.31535 -41.88
8.08588 -3.31535 -41.7467
8.08588 -3.31535 -41.6133
8.08588 -3.31535 -41.48
8.08588 -3.31535 -41.3467
8.08588 -3.31535 -41.2133
8.08588 -3.31535 -41.08
8.08588 -3.31535 -40.9467
8.08588 -3.31535 -40.8133
8.08588 -3.31535 -40.68
8.08588 -3.31535 -40.5467
8.08588 -3.31535 -40.4133
8.08588 -3.31535 -40.28
8.08588 -3.31535 -40.1467
8.08588 -3.31535 -40.0133
8.08588 -3.31535 -39.88
8.08588 -3.31535 -39.7467
8.08588 -3.31535 -39.6133
8.08588 -3.31535 -39.48
8.08588 -3.31535 -39.3467
8.08588 -3.31535 -39.2133
8.08588 -3.31535 -39.08
8.08588 -3.31535 -38.9467
8.08588 -3.31535 -38.8133
8.08588 -3.31535 -38.68
8.08588 -3.31535 -38.5467
8.08588 -3.31535 -38.4133
8.08588 -3.31535 -38.28
8.08588 -3.31535 -38.1467
8.08588 -3.31535 -38.0133
8.08588 -3.31535 -37.88
8.81701 -3.64087 -41.88
8.81701 -3.64087 -41.7467
8.81701 -3.64087 -41.6133
8.81701 -3.64087 -41.48
8.81701 -3.64087 -41.3467
8.81701 -3.64087 -41.2133
8.81701 -3.64087 -41.08
8.81701 -3.64087 -40.9467
8.81701 -3.64087 -40.8133
8.81701 -3.64087 -40.68
8.81701 -3.64087 -40.5467
8.81701 -3.64087 -40.4133
8.81701 -3.64087 -40.28
8.81701 -3.64087 -40.1467
8.81701 -3.64087 -40.0133
8.81701 -3.64087 -39.88
8.81701 -3.64087 -39.7467
8.81701 -3.64087 -39.6133
8.81701 -3.64087 -39.48
8.81701 -3.64087 -39.3467
8.81701 -3.64087 -39.2133
8.81701 -3.64087 -39.08
8.81701 -3.64087 -38.9467
8.81701 -3.64087 -38.8133
8.81701 -3.64087 -38.68
8.81701 -3.64087 -38.5467
8.81701 -3.64087 -38.4133
8.81701 -3.64087 -38.28
8.81701 -3.64087 -38.1467
8.81701 -3.64087 -38.0133
8.81701 -3.64087 -37.88
9.59984 -3.80727 -41.88
9.59984 -3.80727 -41.7467
9.59984 -3.80727 -41.6133
9.59984 -3.80727 -41.48
9.59984 -3.80727 -41.3467
9.59984 -3.80727 -41.2133
9.59984 -3.80727 -41.08
9.59984 -3.80727 -40.9467
9.59984 -3.80727 -40.8133
9.59984 -3.80727 -40.68
9.59984 -3.80727 -40.5467
9.59984 -3.80727 -40.4133
9.59984 -3.80727 -40.28
9.59984 -3.80727 -40.1467
9.59984 -3.80727 -40.0133
9.59984 -3.80727 -39.88
9.59984 -3.80727 -39.7467
9.59984 -3.80727 -39.6133
9.59984 -3.80727 -39.48
9.59984 -3.80727 -39.3467
9.59984 -3.80727 -39.2133
9.59984 -3.80727 -39.08
9.59984 -3.80727 -38.9467
9.59984 -3.80727 -38.8133
9.59984 -3.80727 -38.68
9.59984 -3.80727 -38.5467
9.59984 -3.80727 -38.4133
9.59984 -3.80727 -38.28
9.59984 -3.80727 -38.1467
9.59984 -3.80727 -38.0133
9.59984 -3.80727 -37.88
10.4002 -3.80727 -41.88
10.4002 -3.80727 -41.7467
10.4002 -3.80727 -41.6133
10.4002 -3.80727 -41.48
10.4002 -3.80727 -41.3467
10.4002 -3.80727 -41.2133
10.4002 -3.80727 -41.08
10.4002 -3.80727 -40.9467
10.4002 -3.80727 -40.8133
10.4002 -3.80727 -40.68
10.4002 -3.80727 -40.5467
10.4002 -3.80727 -40.4133
10.4002 -3.80727 -40.28
10.4002 -3.80727 -40.1467
10.4002 -3.80727 -40.0133
10.4002 -3.80727 -39.88
10.4002 -3.80727 -39.7467
10.4002 -3.80727 -39.6133
10.4002 -3.80727 -39.48
10.4002 -3.80727 -39.3467
10.4002 -3.80727 -39.2133
10.4002 -3.80727 -39.08
10.4002 -3.80727 -38.9467
10.4002 -3.80727 -38.8133
10.4002 -3.80727 -38.68
10.4002 -3.80727 -38.5467
10.4002 -3.80727 -38.4133
10.4002 -3.80727 -38.28
10.4002 -3.80727 -38.1467
10.4002 -3.80727 -38.0133
10.4002 -3.80727 -37.88
11.183 -3.64087 -41.88
11.183 -3.64087 -41.7467
11.183 -3.64087 -41.6133
11.183 -3.64087 -41.48
11.183 -3.64087 -41.3467
11.183 -3.64087 -41.2133
11.183 -3.64087 -41.08
11.183 -3.64087 -40.9467
11.183 -3.64087 -40.8133
11.183 -3.64087 -40.68
11.183 -3.64087 -40.5467
11.183 -3.64087 -40.4133
11.183 -3.64087 -40.28
11.183 -3.64087 -40.1467
11.183 -3.64087 -40.0133
11.183 -3.64087 -39.88
11.183 -3.64087 -39.7467
11.183 -3.64087 -39.6133
11.183 -3.64087 -39.48
11.183 -3.64087 -39.3467
11.183 -3.64087 -39.2133
11.183 -3.64087 -39.08
11.183 -3.64087 -38.9467
11.183 -3.64087 -38.8133
11.183 -3.64087 -38.68
11.183 -3.64087 -38.5467
11.183 -3.64087 -38.4133
11.183 -3.64087 -38.28
11.183 -3.64087 -38.1467
11.183 -3.64087 -38.0133
11.183 -3.64087 -37.88
11.9141 -3.31535 -41.88
11.9141 -3.31535 -41.7467
11.9141 -3.31535 -41.6133
11.9141 -3.31535 -41.48
11.9141 -3.31535 -41.3467
11.9141 -3.31535 -41.2133
11.9141 -3.31535 -41.08
11.9141 -3.31535 -40.9467
11.9141 -3.31535 -40.8133
11.9141 -3.31535 -40.68
11.9141 -3.31535 -40.5467
11.9141 -3.31535 -40.4133
11.9141 -3.31535 -40.28
11.9141 -3.31535 -40.1467
11.9141 -3.31535 -40.0133
11.9141 -3.31535 -39.88
11.9141 -3.31535 -39.7467
11.9141 -3.31535 -39.6133
11.9141 -3.31535 -39.48
11.9141 -3.31535 -39.3467
11.9141 -3.31535 -39.2133
11.9141 -3.31535 -39.08
11.9141 -3.31535 -38.9467
11.9141 -3.31535 -38.8133
11.9141 -3.31535 -38.68
11.9141 -3.31535 -38.5467
11.9141 -3.31535 -38.4133
11.9141 -3.31535 -38.28
11.9141 -3.31535 -38.1467
11.9141 -3.31535 -38.0133
11.9141 -3.31535 -37.88
12.5616 -2.84494 -41.88
12.5616 -2.84494 -41.7467
12.5616 -2.84494 -41.6133
12.5616 -2.84494 -41.48
12.5616 -2.84494 -41.3467
12.5616 -2.84494 -41.2133
12.5616 -2.84494 -41.08
12.5616 -2.84494 -40.9467
12.5616 -2.84494 -40.8133
12.5616 -2.84494 -40.68
12.5616 -2.84494 -40.5467
12.5616 -2.84494 -40.4133
12.5616 -2.84494 -40.28
12.5616 -2.84494 -40.1467
12.5616 -2.84494 -40.0133
12.5616 -2.84494 -39.88
12.5616 -2.84494 -39.7467
12.5616 -2.84494 -39.6133
12.5616 -2.84494 -39.48
12.5616 -2.84494 -39.3467
12.5616 -2.84494 -39.2133
12.5616 -2.84494 -39.08
12.5616 -2.84494 -38.9467
12.5616 -2.84494 -38.8133
12.5616 -2.84494 -38.68
12.5616 -2.84494 -38.5467
12.5616 -2.84494 -38.4133
12.5616 -2.84494 -38.28
12.5616 -2.84494 -38.1467
12.5616 -2.84494 -38.0133
12.5616 -2.84494 -37.88
13.0971 -2.25018 -41.88
13.0971 -2.25018 -41.7467
13.0971 -2.25018 -41.6133
13.0971 -2.25018 -41.48
13.0971 -2.25018 -41.3467
13.0971 -2.25018 -41.2133
13.0971 -2.25018 -41.08
13.0971 -2.25018 -40.9467
13.0971 -2.25018 -40.8133
13.0971 -2.25018 -40.68
13.0971 -2.25018 -40.5467
13.0971 -2.25018 -40.4133
13.0971 -2.25018 -40.28
13.0971 -2.25018 -40.1467
13.0971 -2.25018 -40.0133
13.0971 -2.25018 -39.88
13.0971 -2.25018 -39.7467
13.0971 -2.25018 -39.6133
13.0971 -2.25018 -39.48
13.0971 -2.25018 -39.3467
13.0971 -2.25018 -39.2133
13.0971 -2.25018 -39.08
13.0971 -2.25018 -38.9467
13.0971 -2.25018 -38.8133
13.0971 -2.25018 -38.68
13.0971 -2.25018 -38.5467
13.0971 -2.25018 -38.4133
13.0971 -2.25018 -38.28
13.0971 -2.25018 -38.1467
13.0971 -2.25018 -38.0133
13.0971 -2.25018 -37.88
13.4973 -1.55708 -41.88
13.4973 -1.55708 -41.7467
13.4973 -1.55708 -41.6133
13.4973 -1.55708 -41.48
13.4973 -1.55708 -41.3467
13.4973 -1.55708 -41.2133
13.4973 -1.55708 -41.08
13.4973 -1.55708 -40.9467
13.4973 -1.55708 -40.8133
13.4973 -1.55708 -40.68
13.4973 -1.55708 -40.5467
13.4973 -1.55708 -40.4133
13.4973 -1.55708 -40.28
13.4973 -1.55708 -40.1467
13.4973 -1.55708 -40.0133
13.4973 -1.55708 -39.88
13.4973 -1.55708 -39.7467
13.4973 -1.55708 -39.6133
13.4973 -1.55708 -39.48
13.4973 -1.55708 -39.3467
13.4973 -1.55708 -39.2133
13.4973 -1.55708 -39.08
13.4973 -1.55708 -38.9467
13.4973 -1.55708 -38.8133
13.4973 -1.55708 -38.68
13.4973 -1.55708 -38.5467
13.4973 -1.55708 -38.4133
13.4973 -1.55708 -38.28
13.4973 -1.55708 -38.1467
13.4973 -1.55708 -38.0133
13.4973 -1.55708 -37.88
13.7446 -0.795935 -41.88
13.7446 -0.795935 -41.7467
13.7446 -0.795935 -41.6133
13.7446 -0.795935 -41.48
13.7446 -0.795935 -41.3467
13.7446 -0.795935 -41.2133
13.7446 -0.795935 -41.08
13.7446 -0.795935 -40.9467
13.7446 -0.795935 -40.8133
13.7446 -0.795935 -40.68
13.7446 -0.795935 -40.5467
13.7446 -0.795935 -40.4133
13.7446 -0.795935 -40.28
13.7446 -0.795935 -40.1467
13.7446 -0.795935 -40.0133
13.7446 -0.795935 -39.88
13.7446 -0.795935 -39.7467
13.7446 -0.795935 -39.6133
13.7446 -0.795935 -39.48
13.7446 -0.795935 -39.3467
13.7446 -0.795935 -39.2133
13.7446 -0.795935 -39.08
13.7446 -0.795935 -38.9467
13.7446 -0.795935 -38.8133
13.7446 -0.795935 -38.68
13.7446 -0.795935 -38.5467
13.7446 -0.795935 -38.4133
13.7446 -0.795935 -38.28
13.7446 -0.795935 -38.1467
13.7446 -0.795935 -38.0133
13.7446 -0.795935 -37.88
13.8282 1.85633e-12 -41.88
13.8282 1.85633e-12 -41.7467
13.8282 1.85633e-12 -41.6133
13.8282 1.85633e-12 -41.48
13.8282 1.85633e-12 -41.3467
13.8282 1.85633e-12 -41.2133
13.8282 1.85633e-12 -41.08
13.8282 1.85633e-12 -40.9467
13.8282 1.85633e-12 -40.8133
13.8282 1.85633e-12 -40.68
13.8282 1.85633e-12 -40.5467
13.8282 1.85633e-12 -40.4133
13.8282 1.85633e-12 -40.28
13.8282 1.85633e-12 -40.1467
13.8282 1.85633e-12 -40.0133
13.8282 1.85633e-12 -39.88
13.8282 1.85633e-12 -39.7467
13.8282 1.85633e-12 -39.6133
13.8282 1.85633e-12 -39.48
13.8282 1.85633e-12 -39.3467
13.8282 1.85633e-12 -39.2133
13.8282 1.85633e-12 -39.08
13.8282 1.85633e-12 -38.9467
13.8282 1.85633e-12 -38.8133
13.8282 1.85633e-12 -38.68
13.8282 1.85633e-12 -38.5467
13.8282 1.85633e-12 -38.4133
13.8282 1.85633e-12 -38.28
13.8282 1.85633e-12 -38.1467
13.8282 1.85633e-12 -38.0133
13.8282 1.85633e-12 -37.88
13.7446 0.795935 -41.88
13.7446 0.795935 -41.7467
13.7446 0.795935 -41.6133
13.7446 0.795935 -41.48
13.7446 0.795935 -41.3467
13.7446 0.795935 -41.2133
13.7446 0.795935 -41.08
13.7446 0.795935 -40.9467
13.7446 0.795935 -40.8133
13.7446 0.795935 -40.68
13.7446 0.795935 -40.5467
13.7446 0.795935 -40.4133
13.7446 0.795935 -40.28
13.7446 0.795935 -40.1467
13.7446 0.795935 -40.0133
13.7446 0.795935 -39.88
13.7446 0.795935 -39.7467
13.7446 0.795935 -39.6133
13.7446 0.795935 -39.48
13.7446 0.795935 -39.3467
13.7446 0.795935 -39.2133
13.7446 0.795935 -39.08
13.7446 0.795935 -38.9467
13.7446 0.795935 -38.8133
13.7446 0.795935 -38.68
13.7446 0.795935 -38.5467
13.7446 0.795935 -38.4133
13.7446 0.795935 -38.28
13.7446 0.795935 -38.1467
13.7446 0.795935 -38.0133
13.7446 0.795935 -37.88
13.4973 1.55708 -41.88
13.4973 1.55708 -41.7467
13.4973 1.55708 -41.6133
13.4973 1.55708 -41.48
13.4973 1.55708 -41.3467
13.4973 1.55708 -41.2133
13.4973 1.55708 -41.08
13.4973 1.55708 -40.9467
13.4973 1.55708 -40.8133
13.4973 1.55708 -40.68
13.4973 1.55708 -40.5467
13.4973 1.55708 -40.4133
13.4973 1.55708 -40.28
13.4973 1.55708 -40.1467
13.4973 1.55708 -40.0133
13.4973 1.55708 -39.88
13.4973 1.55708 -39.7467
13.4973 1.55708 -39.6133
13.4973 1.55708 -39.48
13.4973 1.55708 -39.3467
13.4973 1.55708 -39.2133
13.4973 1.55708 -39.08
13.4973 1.55708 -38.9467
13.4973 1.55708 -38.8133
13.4973 1.55708 -38.68
13.4973 1.55708 -38.5467
13.4973 1.55708 -38.4133
13.4973 1.55708 -38.28
13.4973 1.55708 -38.1467
13.4973 1.55708 -38.0133
13.4973 1.55708 -37.88
13.0971 2.25018 -41.88
13.0971 2.25018 -41.7467
13.0971 2.25018 -41.6133
13.0971 2.25018 -41.48
13.0971 2.25018 -41.3467
13.0971 2.25018 -41.2133
13.0971 2.25018 -41.08
13.0971 2.25018 -40.9467
13.0971 2.25018 -40.8133
13.0971 2.25018 -40.68
13.0971 2.25018 -40.5467
13.0971 2.25018 -40.4133
13.0971 2.25018 -40.28
13.0971 2.25018 -40.1467
13.0971 2.25018 -40.0133
13.0971 2.25018 -39.88
13.0971 2.25018 -39.7467
13.0971 2.25018 -39.6133
13.0971 2.25018 -39.48
13.0971 2.25018 -39.3467
13.0971 2.25018 -39.2133
13.0971 2.25018 -39.08
13.0971 2.25018 -38.9467
13.0971 2.25018 -38.8133
13.0971 2.25018 -38.68
13.0971 2.25018 -38.5467
13.0971 2.25018 -38.4133
13.0971 2.25018 -38.28
13.0971 2.25018 -38.1467
13.0971 2.25018 -38.0133
13.0971 2.25018 -37.88
12.5616 2.84494 -41.88
12.5616 2.84494 -41.7467
12.5616 2.84494 -41.6133
12.5616 2.84494 -41.48
12.5616 2.84494 -41.3467
12.5616 2.84494 -41.2133
12.5616 2.84494 -41.08
12.5616 2.84494 -40.9467
12.5616 2.84494 -40.8133
12.5616 2.84494 -40.68
12.5616 2.84494 -40.5467
12.5616 2.84494 -40.4133
12.5616 2.84494 -40.28
12.5616 2.84494 -40.1467
12.5616 2.84494 -40.0133
12.5616 2.84494 -39.88
12.5616 2.84494 -39.7467
12.5616 2.84494 -39.6133
12.5616 2.84494 -39.48
12.5616 2.84494 -39.3467
12.5616 2.84494 -39.2133
12.5616 2.84494 -39.08
12.5616 2.84494 -38.9467
12.5616 2.84494 -38.8133
12.5616 2.84494 -38.68
12.5616 2.84494 -38.5467
12.5616 2.84494 -38.4133
12.5616 2.84494 -38.28
12.5616 2.84494 -38.1467
12.5616 2.84494 -38.0133
12.5616 2.84494 -37.88
11.9141 3.31535 -41.88
11.9141 3.31535 -41.7467
11.9141 3.31535 -41.6133
11.9141 3.31535 -41.48
11.9141 3.31535 -41.3467
11.9141 3.31535 -41.2133
11.9141 3.31535 -41.08
11.9141 3.31535 -40.9467
11.9141 3.31535 -40.8133
11.9141 3.31535 -40.68
11.9141 3.31535 -40.5467
11.9141 3.31535 -40.4133
11.9141 3.31535 -40.28
11.9141 3.31535 -40.1467
11.9141 3.31535 -40.0133
11.9141 3.31535 -39.88
11.9141 3.31535 -39.7467
11.9141 3.31535 -39.6133
11.9141 3.31535 -39.48
11.9141 3.31535 -39.3467
11.9141 3.31535 -39.2133
11.9141 3.31535 -39.08
11.9141 3.31535 -38.9467
11.9141 3.31535 -38.8133
11.9141 3.31535 -38.68
11.9141 3.31535 -38.5467
11.9141 3.31535 -38.4133
11.9141 3.31535 -38.28
11.9141 3.31535 -38.1467
11.9141 3.31535 -38.0133
11.9141 3.31535 -37.88
11.183 3.64087 -41.88
11.183 3.64087 -41.7467
11.183 3.64087 -41.6133
11.183 3.64087 -41.48
11.183 3.64087 -41.3467
11.183 3.64087 -41.2133
11.183 3.64087 -41.08
11.183 3.64087 -40.9467
11.183 3.64087 -40.8133
11.183 3.64087 -40.68
11.183 3.64087 -40.5467
11.183 3.64087 -40.4133
11.183 3.64087 -40.28
11.183 3.64087 -40.1467
11.183 3.64087 -40.0133
11.183 3.64087 -39.88
11.183 3.64087 -39.7467
11.183 3.64087 -39.6133
11.183 3.64087 -39.48
11.183 3.64087 -39.3467
11.183 3.64087 -39.2133
11.183 3.64087 -39.08
11.183 3.64087 -38.9467
11.183 3.64087 -38.8133
11.183 3.64087 -38.68
11.183 3.64087 -38.5467
11.183 3.64087 -38.4133
11.183 3.64087 -38.28
11.183 3.64087 -38.1467
11.183 3.64087 -38.0133
11.183 3.64087 -37.88
10.4002 3.80727 -41.88
10.4002 3.80727 -41.7467
10.4002 3.80727 -41.6133
10.4002 3.80727 -41.48
10.4002 3.80727 -41.3467
10.4002 3.80727 -41.2133
10.4002 3.80727 -41.08
10.4002 3.80727 -40.9467
10.4002 3.80727 -40.8133
10.4002 3.80727 -40.68
10.4002 3.80727 -40.5467
10.4002 3.80727 -40.4133
10.4002 3.80727 -40.28
10.4002 3.80727 -40.1467
10.4002 3.80727 -40.0133
10.4002 3.80727 -39.88
10.4002 3.80727 -39.7467
10.4002 3.80727 -39.6133
10.4002 3.80727 -39.48
10.4002 3.80727 -39.3467
10.4002 3.80727 -39.2133
10.4002 3.80727 -39.08
10.4002 3.80727 -38.9467
10.4002 3.80727 -38.8133
10.4002 3.80727 -38.68
10.4002 3.80727 -38.5467
10.4002 3.80727 -38.4133
10.4002 3.80727 -38.28
10.4002 3.80727 -38.1467
10.4002 3.80727 -38.0133
10.4002 3.80727 -37.88
9.59984 3.80727 -41.88
9.59984 3.80727 -41.7467
9.59984 3.80727 -41.6133
9.59984 3.80727 -41.48
9.59984 3.80727 -41.3467
9.59984 3.80727 -41.2133
9.59984 3.80727 -41.08
9.59984 3.80727 -40.9467
9.59984 3.80727 -40.8133
9.59984 3.80727 -40.68
9.59984 3.80727 -40.5467
9.59984 3.80727 -40.4133
9.59984 3.80727 -40.28
9.59984 3.80727 -40.1467
9.59984 3.80727 -40.0133
9.59984 3.80727 -39.88
9.59984 3.80727 -39.7467
9.59984 3.80727 -39.6133
9.59984 3.80727 -39.48
9.59984 3.80727 -39.3467
9.59984 3.80727 -39.2133
9.59984 3.80727 -39.08
9.59984 3.80727 -38.9467
9.59984 3.80727 -38.8133
9.59984 3.80727 -38.68
9.59984 3.80727 -38.5467
9.59984 3.80727 -38.4133
9.59984 3.80727 -38.28
9.59984 3.80727 -38.1467
9.59984 3.80727 -38.0133
9.59984 3.80727 -37.88
8.81701 3.64087 -41.88
8.81701 3.64087 -41.7467
8.81701 3.64087 -41.6133
8.81701 3.64087 -41.48
8.81701 3.64087 -41.3467
8.81701 3.64087 -41.2133
8.81701 3.64087 -41.08
8.81701 3.64087 -40.9467
8.81701 3.64087 -40.8133
8.81701 3.64087 -40.68
8.81701 3.64087 -40.5467
8.81701 3.64087 -40.4133
8.81701 3.64087 -40.28
8.81701 3.64087 -40.1467
8.81701 3.64087 -40.0133
8.81701 3.64087 -39.88
8.81701 3.64087 -39.7467
8.81701 3.64087 -39.6133
8.81701 3.64087 -39.48
8.81701 3.64087 -39.3467
8.81701 3.64087 -39.2133
8.81701 3.64087 -39.08
8.81701 3.64087 -38.9467
8.81701 3.64087 -38.8133
8.81701 3.64087 -38.68
8.81701 3.64087 -38.5467
8.81701 3.64087 -38.4133
8.81701 3.64087 -38.28
8.81701 3.64087 -38.1467
8.81701 3.64087 -38.0133
8.81701 3.64087 -37.88
8.08588 3.31535 -41.88
8.08588 3.31535 -41.7467
8.08588 3.31535 -41.6133
8.08588 3.31535 -41.48
8.08588 3.31535 -41.3467
8.08588 3.31535 -41.2133
8.08588 3.31535 -41.08
8.08588 3.31535 -40.9467
8.08588 3.31535 -40.8133
8.08588 3.31535 -40.68
8.08588 3.31535 -40.5467
8.08588 3.31535 -40.4133
8.08588 3.31535 -40.28
8.08588 3.31535 -40.1467
8.08588 3.31535 -40.0133
8.08588 3.31535 -39.88
8.08588 3.31535 -39.7467
8.08588 3.31535 -39.6133
8.08588 3.31535 -39.48
8.08588 3.31535 -39.3467
8.08588 3.31535 -39.2133
8.08588 3.31535 -39.08
8.08588 3.31535 -38.9467
8.08588 3.31535 -38.8133
8.08588 3.31535 -38.68
8.08588 3.31535 -38.5467
8.08588 3.31535 -38.4133
8.08588 3.31535 -38.28
8.08588 3.31535 -38.1467
8.08588 3.31535 -38.0133
8.08588 3.31535 -37.88
7.43841 2.84494 -41.88
7.43841 2.84494 -41.7467
7.43841 2.84494 -41.6133
7.43841 2.84494 -41.48
7.43841 2.84494 -41.3467
7.43841 2.84494 -41.2133
7.43841 2.84494 -41.08
7.43841 2.84494 -40.9467
7.43841 2.84494 -40.8133
7.43841 2.84494 -40.68
7.43841 2.84494 -40.5467
7.43841 2.84494 -40.4133
7.43841 2.84494 -40.28
7.43841 2.84494 -40.1467
7.43841 2.84494 -40.0133
7.43841 2.84494 -39.88
7.43841 2.84494 -39.7467
7.43841 2.84494 -39.6133
7.43841 2.84494 -39.48
7.43841 2.84494 -39.3467
7.43841 2.84494 -39.2133
7.43841 2.84494 -39.08
7.43841 2.84494 -38.9467
7.43841 2.84494 -38.8133
7.43841 2.84494 -38.68
7.43841 2.84494 -38.5467
7.43841 2.84494 -38.4133
7.43841 2.84494 -38.28
7.43841 2.84494 -38.1467
7.43841 2.84494 -38.0133
7.43841 2.84494 -37.88
6.90289 2.25018 -41.88
6.90289 2.25018 -41.7467
6.90289 2.25018 -41.6133
6.90289 2.25018 -41.48
6.90289 2.25018 -41.3467
6.90289 2.25018 -41.2133
6.90289 2.25018 -41.08
6.90289 2.25018 -40.9467
6.90289 2.25018 -40.8133
6.90289 2.25018 -40.68
6.90289 2.25018 -40.5467
6.90289 2.25018 -40.4133
6.90289 2.25018 -40.28
6.90289 2.25018 -40.1467
6.90289 2.25018 -40.0133
6.90289 2.25018 -39.88
6.90289 2.25018 -39.7467
6.90289 2.25018 -39.6133
6.90289 2.25018 -39.48
6.90289 2.25018 -39.3467
6.90289 2.25018 -39.2133
6.90289 2.25018 -39.08
6.90289 2.25018 -38.9467
6.90289 2.25018 -38.8133
6.90289 2.25018 -38.68
6.90289 2.25018 -38.5467
6.90289 2.25018 -38.4133
6.90289 2.25018 -38.28
6.90289 2.25018 -38.1467
6.90289 2.25018 -38.0133
6.90289 2.25018 -37.88
6.50273 1.55708 -41.88
6.50273 1.55708 -41.7467
6.50273 1.55708 -41.6133
6.50273 1.55708 -41.48
6.50273 1.55708 -41.3467
6.50273 1.55708 -41.2133
6.50273 1.55708 -41.08
6.50273 1.55708 -40.9467
6.50273 1.55708 -40.8133
6.50273 1.55708 -40.68
6.50273 1.55708 -40.5467
6.50273 1.55708 -40.4133
6.50273 1.55708 -40.28
6.50273 1.55708 -40.1467
6.50273 1.55708 -40.0133
6.50273 1.55708 -39.88
6.50273 1.55708 -39.7467
6.50273 1.55708 -39.6133
6.50273 1.55708 -39.48
6.50273 1.55708 -39.3467
6.50273 1.55708 -39.2133
6.50273 1.55708 -39.08
6.50273 1.55708 -38.9467
6.50273 1.55708 -38.8133
6.50273 1.55708 -38.68
6.50273 1.55708 -38.5467
6.50273 1.55708 -38.4133
6.50273 1.55708 -38.28
6.50273 1.55708 -38.1467
6.50273 1.55708 -38.0133
6.50273 1.55708 -37.88
6.25542 0.795935 -41.88
6.25542 0.795935 -41.7467
6.25542 0.795935 -41.6133
6.25542 0.795935 -41.48
6.25542 0.795935 -41.3467
6.25542 0.795935 -41.2133
6.25542 0.795935 -41.08
6.25542 0.795935 -40.9467
6.25542 0.795935 -40.8133
6.25542 0.795935 -40.68
6.25542 0.795935 -40.5467
6.25542 0.795935 -40.4133
6.25542 0.795935 -40.28
6.25542 0.795935 -40.1467
6.25542 0.795935 -40.0133
6.25542 0.795935 -39.88
6.25542 0.795935 -39.7467
6.25542 0.795935 -39.6133
6.25542 0.795935 -39.48
6.25542 0.795935 -39.3467
6.25542 0.795935 -39.2133
6.25542 0.795935 -39.08
6.25542 0.795935 -38.9467
6.25542 0.795935 -38.8133
6.25542 0.795935 -38.68
6.25542 0.795935 -38.5467
6.25542 0.795935 -38.4133
6.25542 0.795935 -38.28
6.25542 0.795935 -38.1467
6.25542 0.795935 -38.0133
6.25542 0.795935 -37.88
6.17176 1.85867e-12 -41.88
6.17176 1.85867e-12 -41.7467
6.17176 1.85867e-12 -41.6133
6.17176 1.85867e-12 -41.48
6.17176 1.85867e-12 -41.3467
6.17176 1.85867e-12 -41.2133
6.17176 1.85867e-12 -41.08
6.17176 1.85867e-12 -40.9467
6.17176 1.85867e-12 -40.8133
6.17176 1.85867e-12 -40.68
6.17176 1.85867e-12 -40.5467
6.17176 1.85867e-12 -40.4133
6.17176 1.85867e-12 -40.28
6.17176 1.85867e-12 -40.1467
6.17176 1.85867e-12 -40.0133
6.17176 1.85867e-12 -39.88
6.17176 1.85867e-12 -39.7467
6.17176 1.85867e-12 -39.6133
6.17176 1.85867e-12 -39.48
6.17176 1.85867e-12 -39.3467
6.17176 1.85867e-12 -39.2133
6.17176 1.85867e-12 -39.08
6.17176 1.85867e-12 -38.9467
6.17176 1.85867e-12 -38.8133
6.17176 1.85867e-12 -38.68
6.17176 1.85867e-12 -38.5467
6.17176 1.85867e-12 -38.4133
6.17176 1.85867e-12 -38.28
6.17176 1.85867e-12 -38.1467
6.17176 1.85867e-12 -38.0133
6.17176 1.85867e-12 -37.88
