ply
format ascii 1.0
element vertex 624
property float x
property float y
property float z
end_header
-2.9366 2.12257e-12 -44.18
-2.07416 4.3122 -44.18
-2.07416 3.44976 -44.18
-2.07416 2.58732 -44.18
-2.07416 1.72488 -44.18
-2.07416 0.86244 -44.18
-2.07416 2.12257e-12 -44.18
-2.07416 -0.86244 -44.18
-2.07416 -1.72488 -44.18
-2.07416 -2.58732 -44.18
-2.07416 -3.44976 -44.18
-2.07416 -4.3122 -44.18
-1.21172 6.03708 -44.18
-1.21172 5.17464 -44.18
-1.21172 4.3122 -44.18
-1.21172 3.44976 -44.18
-1.21172 2.58732 -44.18
-1.21172 1.72488 -44.18
-1.21172 0.86244 -44.18
-1.21172 2.12257e-12 -44.18
-1.21172 -0.86244 -44.18
-1.21172 -1.72488 -44.18
-1.21172 -2.58732 -44.18
-1.21172 -3.44976 -44.18
-1.21172 -4.3122 -44.18
-1.21172 -5.17464 -44.18
-1.21172 -6.03708 -44.18
-0.349279 7.76196 -44.18
-0.349279 6.89952 -44.18
-0.349279 6.03708 -44.18
-0.349279 5.17464 -44.18
-0.349279 4.3122 -44.18
-0.349279 3.44976 -44.18
-0.349279 2.58732 -44.18
-0.349279 1.72488 -44.18
-0.349279 0.86244 -44.18
-0.349279 2.12257e-12 -44.18
-0.349279 -0.86244 -44.18
-0.349279 -1.72488 -44.18
-0.349279 -2.58732 -44.18
-0.349279 -3.44976 -44.18
-0.349279 -4.3122 -44.18
-0.349279 -5.17464 -44.18
-0.349279 -6.03708 -44.18
-0.349279 -6.89952 -44.18
-0.349279 -7.76196 -44.18
0.513161 8.6244 -44.18
0.513161 7.76196 -44.18
0.513161 6.89952 -44.18
0.513161 6.03708 -44.18
0.513161 5.17464 -44.18
0.513161 4.3122 -44.18
0.513161 3.44976 -44.18
0.513161 2.58732 -44.18
0.513161 1.72488 -44.18
0.513161 -1.72488 -44.18
0.513161 -2.58732 -44.18
0.513161 -3.44976 -44.18
0.513161 -4.3122 -44.18
0.513161 -5.17464 -44.18
0.513161 -6.03708 -44.18
0.513161 -6.89952 -44.18
0.513161 -7.76196 -44.18
0.513161 -8.6244 -44.18
1.3756 9.48684 -44.18
1.3756 8.6244 -44.18
1.3756 7.76196 -44.18
1.3756 6.89952 -44.18
1.3756 6.03708 -44.18
1.3756 5.17464 -44.18
1.3756 4.3122 -44.18
1.3756 3.44976 -44.18
1.3756 2.58732 -44.18
1.3756 1.72488 -44.18
1.3756 -1.72488 -44.18
1.3756 -2.58732 -44.18
1.3756 -3.44976 -44.18
1.3756 -4.3122 -44.18
1.3756 -5.17464 -44.18
1.3756 -6.03708 -44.18
1.3756 -6.89952 -44.18
1.3756 -7.76196 -44.18
1.3756 -8.6244 -44.18
1.3756 -9.48684 -44.18
2.23804 10.3493 -44.18
2.23804 9.48684 -44.18
2.23804 8.6244 -44.18
2.23804 7.76196 -44.18
2.23804 6.89952 -44.18
2.23804 6.03708 -44.18
2.23804 5.17464 -44.18
2.23804 4.3122 -44.18
2.23804 3.44976 -44.18
2.23804 2.58732 -44.18
2.23804 1.72488 -44.18
2.23804 -1.72488 -44.18
2.23804 -2.58732 -44.18
2.23804 -3.44976 -44.18
2.23804 -4.3122 -44.18
2.23804 -5.17464 -44.18
2.23804 -6.03708 -44.18
2.23804 -6.89952 -44.18
2.23804 -7.76196 -44.18
2.23804 -8.6244 -44.18
2.23804 -9.48684 -44.18
2.23804 -10.3493 -44.18
3.10048 10.3493 -44.18
3.10048 9.48684 -44.18
3.10048 8.6244 -44.18
3.10048 7.76196 -44.18
3.10048 6.89952 -44.18
3.10048 6.03708 -44.18
3.10048 5.17464 -44.18
3.10048 4.3122 -44.18
3.10048 3.44976 -44.18
3.10048 2.58732 -44.18
3.10048 1.72488 -44.18
3.10048 0.86244 -44.18
3.10048 -0.86244 -44.18
3.10048 -1.72488 -44.18
3.10048 -2.58732 -44.18
3.10048 -3.44976 -44.18
3.10048 -4.3122 -44.18
3.10048 -5.17464 -44.18
3.10048 -6.03708 -44.18
3.10048 -6.89952 -44.18
3.10048 -7.76196 -44.18
3.10048 -8.6244 -44.18
3.10048 -9.48684 -44.18
3.10048 -10.3493 -44.18
3.96292 11.2117 -44.18
3.96292 10.3493 -44.18
3.96292 9.48684 -44.18
3.96292 8.6244 -44.18
3.96292 7.76196 -44.18
3.96292 6.89952 -44.18
3.96292 6.03708 -44.18
3.96292 5.17464 -44.18
3.96292 4.3122 -44.18
3.96292 3.44976 -44.18
3.96292 2.58732 -44.18
3.96292 1.72488 -44.18
3.96292 0.86244 -44.18
3.96292 2.12257e-12 -44.18
3.96292 -0.86244 -44.18
3.96292 -1.72488 -44.18
3.96292 -2.58732 -44.18
3.96292 -3.44976 -44.18
3.96292 -4.3122 -44.18
3.96292 -5.17464 -44.18
3.96292 -6.03708 -44.18
3.96292 -6.89952 -44.18
3.96292 -7.76196 -44.18
3.96292 -8.6244 -44.18
3.96292 -9.48684 -44.18
3.96292 -10.3493 -44.18
3.96292 -11.2117 -44.18
4.82536 11.2117 -44.18
4.82536 10.3493 -44.18
4.82536 9.48684 -44.18
4.82536 8.6244 -44.18
4.82536 7.76196 -44.18
4.82536 6.89952 -44.18
4.82536 6.03708 -44.18
4.82536 5.17464 -44.18
4.82536 4.3122 -44.18
4.82536 3.44976 -44.18
4.82536 2.58732 -44.18
4.82536 1.72488 -44.18
4.82536 0.86244 -44.18
4.82536 2.12257e-12 -44.18
4.82536 -0.86244 -44.18
4.82536 -1.72488 -44.18
4.82536 -2.58732 -44.18
4.82536 -3.44976 -44.18
4.82536 -4.3122 -44.18
4.82536 -5.17464 -44.18
4.82536 -6.03708 -44.18
4.82536 -6.89952 -44.18
4.82536 -7.76196 -44.18
4.82536 -8.6244 -44.18
4.82536 -9.48684 -44.18
4.82536 -10.3493 -44.18
4.82536 -11.2117 -44.18
5.6878 12.0742 -44.18
5.6878 11.2117 -44.18
5.6878 10.3493 -44.18
5.6878 9.48684 -44.18
5.6878 8.6244 -44.18
5.6878 7.76196 -44.18
5.6878 6.89952 -44.18
5.6878 6.03708 -44.18
5.6878 5.17464 -44.18
5.6878 4.3122 -44.18
5.6878 3.44976 -44.18
5.6878 2.58732 -44.18
5.6878 1.72488 -44.18
5.6878 0.86244 -44.18
5.6878 2.12257e-12 -44.18
5.6878 -0.86244 -44.18
5.6878 -1.72488 -44.18
5.6878 -2.58732 -44.18
5.6878 -3.44976 -44.18
5.6878 -4.3122 -44.18
5.6878 -5.17464 -44.18
5.6878 -6.03708 -44.18
5.6878 -6.89952 -44.18
5.6878 -7.76196 -44.18
5.6878 -8.6244 -44.18
5.6878 -9.48684 -44.18
5.6878 -10.3493 -44.18
5.6878 -11.2117 -44.18
5.6878 -12.0742 -44.18
6.55024 12.0742 -44.18
6.55024 11.2117 -44.18
6.55024 10.3493 -44.18
6.55024 9.48684 -44.18
6.55024 8.6244 -44.18
6.55024 7.76196 -44.18
6.55024 6.89952 -44.18
6.55024 6.03708 -44.18
6.55024 5.17464 -44.18
6.55024 4.3122 -44.18
6.55024 3.44976 -44.18
6.55024 2.58732 -44.18
6.55024 1.72488 -44.18
6.55024 0.86244 -44.18
6.55024 2.12257e-12 -44.18
6.55024 -0.86244 -44.18
6.55024 -1.72488 -44.18
6.55024 -2.58732 -44.18
6.55024 -3.44976 -44.18
6.55024 -4.3122 -44.18
6.55024 -5.17464 -44.18
6.55024 -6.03708 -44.18
6.55024 -6.89952 -44.18
6.55024 -7.76196 -44.18
6.55024 -8.6244 -44.18
6.55024 -9.48684 -44.18
6.55024 -10.3493 -44.18
6.55024 -11.2117 -44.18
6.55024 -12.0742 -44.18
7.41268 12.0742 -44.18
7.41268 11.2117 -44.18
7.41268 10.3493 -44.18
7.41268 9.48684 -44.18
7.41268 8.6244 -44.18
7.41268 7.76196 -44.18
7.41268 6.89952 -44.18
7.41268 6.03708 -44.18
7.41268 5.17464 -44.18
7.41268 4.3122 -44.18
7.41268 3.44976 -44.18
7.41268 2.58732 -44.18
7.41268 -2.58732 -44.18
7.41268 -3.44976 -44.18
7.41268 -4.3122 -44.18
7.41268 -5.17464 -44.18
7.41268 -6.03708 -44.18
7.41268 -6.89952 -44.18
7.41268 -7.76196 -44.18
7.41268 -8.6244 -44.18
7.41268 -9.48684 -44.18
7.41268 -10.3493 -44.18
7.41268 -11.2117 -44.18
7.41268 -12.0742 -44.18
8.27512 12.0742 -44.18
8.27512 11.2117 -44.18
8.27512 10.3493 -44.18
8.27512 9.48684 -44.18
8.27512 8.6244 -44.18
8.27512 7.76196 -44.18
8.27512 6.89952 -44.18
8.27512 6.03708 -44.18
8.27512 5.17464 -44.18
8.27512 4.3122 -44.18
8.27512 3.44976 -44.18
8.27512 -3.44976 -44.18
8.27512 -4.3122 -44.18
8.27512 -5.17464 -44.18
8.27512 -6.03708 -44.18
8.27512 -6.89952 -44.18
8.27512 -7.76196 -44.18
8.27512 -8.6244 -44.18
8.27512 -9.48684 -44.18
8.27512 -10.3493 -44.18
8.27512 -11.2117 -44.18
8.27512 -12.0742 -44.18
9.13756 12.0742 -44.18
9.13756 11.2117 -44.18
9.13756 10.3493 -44.18
9.13756 6.89952 -44.18
9.13756 6.03708 -44.18
9.13756 5.17464 -44.18
9.13756 4.3122 -44.18
9.13756 3.44976 -44.18
9.13756 -3.44976 -44.18
9.13756 -4.3122 -44.18
9.13756 -5.17464 -44.18
9.13756 -6.03708 -44.18
9.13756 -6.89952 -44.18
9.13756 -10.3493 -44.18
9.13756 -11.2117 -44.18
9.13756 -12.0742 -44.18
10 12.9366 -44.18
10 12.0742 -44.18
10 11.2117 -44.18
10 10.3493 -44.18
10 6.03708 -44.18
10 5.17464 -44.18
10 4.3122 -44.18
10 3.44976 -44.18
10 -3.44976 -44.18
10 -4.3122 -44.18
10 -5.17464 -44.18
10 -6.03708 -44.18
10 -10.3493 -44.18
10 -11.2117 -44.18
10 -12.0742 -44.18
10 -12.9366 -44.18
10.8624 12.0742 -44.18
10.8624 11.2117 -44.18
10.8624 10.3493 -44.18
10.8624 6.89952 -44.18
10.8624 6.03708 -44.18
10.8624 5.17464 -44.18
10.8624 4.3122 -44.18
10.8624 3.44976 -44.18
10.8624 -3.44976 -44.18
10.8624 -4.3122 -44.18
10.8624 -5.17464 -44.18
10.8624 -6.03708 -44.18
10.8624 -6.89952 -44.18
10.8624 -10.3493 -44.18
10.8624 -11.2117 -44.18
10.8624 -12.0742 -44.18
11.7249 12.0742 -44.18
11.7249 11.2117 -44.18
11.7249 10.3493 -44.18
11.7249 9.48684 -44.18
11.7249 8.6244 -44.18
11.7249 7.76196 -44.18
11.7249 6.89952 -44.18
11.7249 6.03708 -44.18
11.7249 5.17464 -44.18
11.7249 4.3122 -44.18
11.7249 3.44976 -44.18
11.7249 -3.44976 -44.18
11.7249 -4.3122 -44.18
11.7249 -5.17464 -44.18
11.7249 -6.03708 -44.18
11.7249 -6.89952 -44.18
11.7249 -7.76196 -44.18
11.7249 -8.6244 -44.18
11.7249 -9.48684 -44.18
11.7249 -10.3493 -44.18
11.7249 -11.2117 -44.18
11.7249 -12.0742 -44.18
12.5873 12.0742 -44.18
12.5873 11.2117 -44.18
12.5873 10.3493 -44.18
12.5873 9.48684 -44.18
12.5873 8.6244 -44.18
12.5873 7.76196 -44.18
12.5873 6.89952 -44.18
12.5873 6.03708 -44.18
12.5873 5.17464 -44.18
12.5873 4.3122 -44.18
12.5873 3.44976 -44.18
12.5873 2.58732 -44.18
12.5873 -2.58732 -44.18
12.5873 -3.44976 -44.18
12.5873 -4.3122 -44.18
12.5873 -5.17464 -44.18
12.5873 -6.03708 -44.18
12.5873 -6.89952 -44.18
12.5873 -7.76196 -44.18
12.5873 -8.6244 -44.18
12.5873 -9.48684 -44.18
12.5873 -10.3493 -44.18
12.5873 -11.2117 -44.18
12.5873 -12.0742 -44.18
13.4498 12.0742 -44.18
13.4498 11.2117 -44.18
13.4498 10.3493 -44.18
13.4498 9.48684 -44.18
13.4498 8.6244 -44.18
13.4498 7.76196 -44.18
13.4498 6.89952 -44.18
13.4498 6.03708 -44.18
13.4498 5.17464 -44.18
13.4498 4.3122 -44.18
13.4498 3.44976 -44.18
13.4498 2.58732 -44.18
13.4498 1.72488 -44.18
13.4498 0.86244 -44.18
13.4498 2.12257e-12 -44.18
13.4498 -0.86244 -44.18
13.4498 -1.72488 -44.18
13.4498 -2.58732 -44.18
13.4498 -3.44976 -44.18
13.4498 -4.3122 -44.18
13.4498 -5.17464 -44.18
13.4498 -6.03708 -44.18
13.4498 -6.89952 -44.18
13.4498 -7.76196 -44.18
13.4498 -8.6244 -44.18
13.4498 -9.48684 -44.18
13.4498 -10.3493 -44.18
13.4498 -11.2117 -44.18
13.4498 -12.0742 -44.18
14.3122 12.0742 -44.18
14.3122 11.2117 -44.18
14.3122 10.3493 -44.18
14.3122 9.48684 -44.18
14.3122 8.6244 -44.18
14.3122 7.76196 -44.18
14.3122 6.89952 -44.18
14.3122 6.03708 -44.18
14.3122 5.17464 -44.18
14.3122 4.3122 -44.18
14.3122 3.44976 -44.18
14.3122 2.58732 -44.18
14.3122 1.72488 -44.18
14.3122 0.86244 -44.18
14.3122 2.12257e-12 -44.18
14.3122 -0.86244 -44.18
14.3122 -1.72488 -44.18
14.3122 -2.58732 -44.18
14.3122 -3.44976 -44.18
14.3122 -4.3122 -44.18
14.3122 -5.17464 -44.18
14.3122 -6.03708 -44.18
14.3122 -6.89952 -44.18
14.3122 -7.76196 -44.18
14.3122 -8.6244 -44.18
14.3122 -9.48684 -44.18
14.3122 -10.3493 -44.18
14.3122 -11.2117 -44.18
14.3122 -12.0742 -44.18
15.1746 11.2117 -44.18
15.1746 10.3493 -44.18
15.1746 9.48684 -44.18
15.1746 8.6244 -44.18
15.1746 7.76196 -44.18
15.1746 6.89952 -44.18
15.1746 6.03708 -44.18
15.1746 5.17464 -44.18
15.1746 4.3122 -44.18
15.1746 3.44976 -44.18
15.1746 2.58732 -44.18
15.1746 1.72488 -44.18
15.1746 0.86244 -44.18
15.1746 2.12257e-12 -44.18
15.1746 -0.86244 -44.18
15.1746 -1.72488 -44.18
15.1746 -2.58732 -44.18
15.1746 -3.44976 -44.18
15.1746 -4.3122 -44.18
15.1746 -5.17464 -44.18
15.1746 -6.03708 -44.18
15.1746 -6.89952 -44.18
15.1746 -7.76196 -44.18
15.1746 -8.6244 -44.18
15.1746 -9.48684 -44.18
15.1746 -10.3493 -44.18
15.1746 -11.2117 -44.18
16.0371 11.2117 -44.18
16.0371 10.3493 -44.18
16.0371 9.48684 -44.18
16.0371 8.6244 -44.18
16.0371 7.76196 -44.18
16.0371 6.89952 -44.18
16.0371 6.03708 -44.18
16.0371 5.17464 -44.18
16.0371 4.3122 -44.18
16.0371 3.44976 -44.18
16.0371 2.58732 -44.18
16.0371 1.72488 -44.18
16.0371 0.86244 -44.18
16.0371 2.12257e-12 -44.18
16.0371 -0.86244 -44.18
16.0371 -1.72488 -44.18
16.0371 -2.58732 -44.18
16.0371 -3.44976 -44.18
16.0371 -4.3122 -44.18
16.0371 -5.17464 -44.18
16.0371 -6.03708 -44.18
16.0371 -6.89952 -44.18
16.0371 -7.76196 -44.18
16.0371 -8.6244 -44.18
16.0371 -9.48684 -44.18
16.0371 -10.3493 -44.18
16.0371 -11.2117 -44.18
16.8995 10.3493 -44.18
16.8995 9.48684 -44.18
16.8995 8.6244 -44.18
16.8995 7.76196 -44.18
16.8995 6.89952 -44.18
16.8995 6.03708 -44.18
16.8995 5.17464 -44.18
16.8995 4.3122 -44.18
16.8995 3.44976 -44.18
16.8995 2.58732 -44.18
16.8995 1.72488 -44.18
16.8995 0.86244 -44.18
16.8995 -0.86244 -44.18
16.8995 -1.72488 -44.18
16.8995 -2.58732 -44.18
16.8995 -3.44976 -44.18
16.8995 -4.3122 -44.18
16.8995 -5.17464 -44.18
16.8995 -6.03708 -44.18
16.8995 -6.89952 -44.18
16.8995 -7.76196 -44.18
16.8995 -8.6244 -44.18
16.8995 -9.48684 -44.18
16.8995 -10.3493 -44.18
17.762 10.3493 -44.18
17.762 9.48684 -44.18
17.762 8.6244 -44.18
17.762 7.76196 -44.18
17.762 6.89952 -44.18
17.762 6.03708 -44.18
17.762 5.17464 -44.18
17.762 4.3122 -44.18
17.762 3.44976 -44.18
17.762 2.58732 -44.18
17.762 1.72488 -44.18
17.762 -1.72488 -44.18
17.762 -2.58732 -44.18
17.762 -3.44976 -44.18
17.762 -4.3122 -44.18
17.762 -5.17464 -44.18
17.762 -6.03708 -44.18
17.762 -6.89952 -44.18
17.762 -7.76196 -44.18
17.762 -8.6244 -44.18
17.762 -9.48684 -44.18
17.762 -10.3493 -44.18
18.6244 9.48684 -44.18
18.6244 8.6244 -44.18
18.6244 7.76196 -44.18
18.6244 6.89952 -44.18
18.6244 6.03708 -44.18
18.6244 5.17464 -44.18
18.6244 4.3122 -44.18
18.6244 3.44976 -44.18
18.6244 2.58732 -44.18
18.6244 1.72488 -44.18
18.6244 -1.72488 -44.18
18.6244 -2.58732 -44.18
18.6244 -3.44976 -44.18
18.6244 -4.3122 -44.18
18.6244 -5.17464 -44.18
18.6244 -6.03708 -44.18
18.6244 -6.89952 -44.18
18.6244 -7.76196 -44.18
18.6244 -8.6244 -44.18
18.6244 -9.48684 -44.18
19.4868 8.6244 -44.18
19.4868 7.76196 -44.18
19.4868 6.89952 -44.18
19.4868 6.03708 -44.18
19.4868 5.17464 -44.18
19.4868 4.3122 -44.18
19.4868 3.44976 -44.18
19.4868 2.58732 -44.18
19.4868 1.72488 -44.18
19.4868 -1.72488 -44.18
19.4868 -2.58732 -44.18
19.4868 -3.44976 -44.18
19.4868 -4.3122 -44.18
19.4868 -5.17464 -44.18
19.4868 -6.03708 -44.18
19.4868 -6.89952 -44.18
19.4868 -7.76196 -44.18
19.4868 -8.6244 -44.18
20.3493 7.76196 -44.18
20.3493 6.89952 -44.18
20.3493 6.03708 -44.18
20.3493 5.17464 -44.18
20.3493 4.3122 -44.18
20.3493 3.44976 -44.18
20.3493 2.58732 -44.18
20.3493 1.72488 -44.18
20.3493 0.86244 -44.18
20.3493 2.12257e-12 -44.18
20.3493 -0.86244 -44.18
20.3493 -1.72488 -44.18
20.3493 -2.58732 -44.18
20.3493 -3.44976 -44.18
20.3493 -4.3122 -44.18
20.3493 -5.17464 -44.18
20.3493 -6.03708 -44.18
20.3493 -6.89952 -44.18
20.3493 -7.76196 -44.18
21.2117 6.03708 -44.18
21.2117 5.17464 -44.18
21.2117 4.3122 -44.18
21.2117 3.44976 -44.18
21.2117 2.58732 -44.18
21.2117 1.72488 -44.18
21.2117 0.86244 -44.18
21.2117 2.12257e-12 -44.18
21.2117 -0.86244 -44.18
21.2117 -1.72488 -44.18
21.2117 -2.58732 -44.18
21.2117 -3.44976 -44.18
21.2117 -4.3122 -44.18
21.2117 -5.17464 -44.18
21.2117 -6.03708 -44.18
22.0742 4.3122 -44.18
22.0742 3.44976 -44.18
22.0742 2.58732 -44.18
22.0742 1.72488 -44.18
22.0742 0.86244 -44.18
22.0742 2.12257e-12 -44.18
22.0742 -0.86244 -44.18
22.0742 -1.72488 -44.18
22.0742 -2.58732 -44.18
22.0742 -3.44976 -44.18
22.0742 -4.3122 -44.18
22.9366 2.12257e-12 -44.18
